# Blender 5.1.1
# www.blender.org
mtllib model.mtl
o Circle
v 13.062182 3.500000 7.860600
v -9.562182 -9.562182 7.860600
v 3.500000 -13.062168 7.860600
v -9.562182 9.562182 7.860600
v 2.240966 8.363432 0.918938
v -3.500000 -13.062182 7.860600
v 13.062182 -3.500000 7.860600
v -13.062182 3.500000 7.860600
v 3.500000 13.062182 7.860600
v 6.122466 -6.122452 0.918938
v -13.062182 -3.500000 7.860600
v -3.500000 13.062182 7.860600
v 3.500000 13.062182 35.627262
v -13.062182 3.500000 35.627262
v 9.562182 -9.562168 35.627262
v 9.562168 9.562182 35.627262
v -9.562182 9.562182 35.627262
v 8.363432 -2.240966 0.918938
v 3.500000 -13.062168 35.627262
v 13.062182 3.500000 35.627262
v -3.500000 13.062182 35.627262
v -6.384252 -6.384252 43.164146
v -13.062182 -3.500000 35.627262
v 13.062182 -3.500000 35.627262
v -6.122452 6.122452 0.918938
v -6.122452 -6.122452 0.918938
v 9.562182 -9.562168 7.860600
v -2.240980 8.363432 0.918938
v -8.363432 -2.240980 0.918938
v 8.363432 2.240980 0.918938
v 2.240980 -8.363432 0.918938
v 6.122452 6.122466 0.918938
v -8.363432 2.240980 0.918938
v -9.562182 9.562182 21.743925
v -2.240980 -8.363432 0.918938
v 9.562168 9.562182 7.860600
v 8.721048 -2.336796 43.164146
v 13.062182 -3.500000 21.743925
v -8.721048 -2.336796 43.164146
v -13.062182 -3.500000 21.743925
v -9.562182 -9.562182 35.627262
v -3.500000 -13.062182 21.743925
v -2.336796 8.721048 43.164146
v -3.500000 13.062182 21.743925
v 8.721048 2.336796 43.164146
v 3.500000 -13.062168 21.743925
v -3.574466 -13.340096 42.896511
v 2.336796 -8.721048 43.164146
v 9.562168 9.562182 21.743925
v -6.384252 6.384252 43.164146
v 13.062182 3.500000 21.743925
v 6.384252 6.384252 43.164146
v -9.562182 -9.562182 21.743925
v 6.384252 -6.384252 43.164146
v 9.562182 -9.562168 21.743925
v -8.721048 2.336796 43.164146
v -13.062182 3.500000 21.743925
v 2.336796 8.721048 43.164146
v 3.500000 13.062182 21.743925
v -13.330395 3.571862 42.331261
v -3.603446 13.448232 15.069901
v 3.433332 -12.813360 0.621326
v -13.330395 3.571862 1.156586
v 13.448232 3.603446 14.534624
v -3.603446 13.448232 14.534624
v 9.844800 -9.844787 28.953224
v -3.603446 13.448232 28.953224
v -12.813360 3.433332 0.621326
v -9.844800 9.844800 28.953224
v 9.844800 -9.844787 28.417963
v -13.330395 -3.571862 42.331261
v -3.603446 13.448232 28.417963
v 3.571876 -13.330395 42.331261
v -9.758518 9.758518 1.156586
v -3.603446 -13.448232 15.069901
v -13.448232 -3.603446 15.069901
v 13.448232 3.603446 15.069901
v -3.603446 -13.448232 14.534624
v -13.448232 -3.603446 14.534624
v 9.758532 -9.758518 42.331261
v -9.380028 9.380028 0.621326
v -3.603446 -13.448232 28.953224
v -9.758518 -9.758518 42.331261
v -13.448232 -3.603446 28.953224
v -3.571876 13.330395 1.156586
v -9.844800 9.844800 14.534624
v -3.603446 -13.448232 28.417963
v -13.448232 -3.603446 28.417963
v 13.448246 -3.603432 15.069901
v 13.330395 -3.571862 42.331261
v -3.433332 12.813360 0.621326
v 3.603446 -13.448232 15.069901
v -9.844800 9.844800 15.069901
v 13.448246 -3.603432 14.534624
v 3.571862 13.330395 1.156586
v -9.844800 -9.844800 15.069901
v -3.571862 -13.330395 42.331261
v 13.448246 -3.603432 28.953224
v 9.844787 9.844800 28.953224
v 13.448246 -3.603432 28.417963
v -3.500000 -13.062182 35.627262
v -9.765630 -9.765615 42.896511
v -13.340096 -3.574466 42.896511
v -13.340096 3.574466 42.896511
v -9.765630 9.765630 42.896511
v -3.574466 13.340096 42.896511
v 3.574466 13.340096 42.896511
v 9.765615 9.765630 42.896511
v 13.340082 3.574466 42.896511
v 13.340096 -3.574466 42.896511
v 9.765630 -9.765615 42.896511
v 3.574466 -13.340082 42.896511
v 3.574466 -13.340082 0.591339
v 9.765630 -9.765615 0.591339
v 13.340096 -3.574466 0.591339
v 13.340082 3.574466 0.591339
v 9.765615 9.765630 0.591339
v 3.574466 13.340096 0.591339
v -3.574466 13.340096 0.591339
v -9.765630 9.765630 0.591339
v -13.340096 3.574466 0.591339
v -13.340096 -3.574466 0.591339
v -9.765630 -9.765615 0.591339
v -3.574466 -13.340082 0.591339
v 3.603446 -13.448232 14.534624
v -9.844800 -9.844800 14.534624
v -9.844800 -9.844800 28.953224
v 13.448232 3.603446 28.953224
v -9.844800 9.844800 28.417963
v 9.844800 -9.844787 14.534624
v -13.448232 3.603446 28.417963
v -13.448232 3.603446 14.534624
v 3.603446 13.448232 28.417963
v 3.603446 13.448232 14.534624
v -12.813360 -3.433332 0.621326
v 3.571876 -13.330395 1.156586
v -13.330395 -3.571862 1.156586
v 9.380042 -9.380028 0.621326
v -9.758518 9.758518 42.331261
v -9.380028 -9.380028 0.621326
v 9.758532 -9.758518 1.156586
v -9.758518 -9.758518 1.156586
v 12.813360 -3.433318 0.621326
v -3.571876 13.330395 42.331261
v -3.433332 -12.813360 0.621326
v -3.571862 -13.330395 1.156586
v 13.330395 -3.571862 1.156586
v 12.813360 3.433332 0.621326
v 3.571862 13.330395 42.331261
v 13.330395 3.571876 1.156586
v 9.380028 9.380028 0.621326
v 9.758518 9.758532 42.331261
v 9.758518 9.758532 1.156586
v 3.433332 12.813360 0.621326
v 13.330395 3.571876 42.331261
v -2.336796 -8.721048 43.164146
v 3.603446 13.448232 28.953224
v -13.448232 3.603446 28.953224
v 9.844787 9.844800 15.069901
v 3.603446 -13.448232 28.953224
v -9.844800 -9.844800 28.417963
v 3.603446 13.448232 15.069901
v -13.448232 3.603446 15.069901
v 9.844800 -9.844787 15.069901
v 3.603446 -13.448232 28.417963
v 13.448232 3.603446 28.417963
v 9.844787 9.844800 28.417963
v 9.844787 9.844800 14.534624
v 13.079150 -3.504536 0.465015
v 3.504550 -13.079150 0.465015
v 3.504550 13.079150 0.465015
v -13.079150 3.504550 0.465015
v -3.608444 -13.466922 0.866467
v -9.574600 -9.574600 0.465015
v 9.574600 9.574600 0.465015
v 13.079150 3.504550 0.465015
v -9.574600 9.574600 0.465015
v -3.504550 13.079150 0.465015
v 9.574615 -9.574600 0.465015
v 3.608458 -13.466922 0.866467
v -3.504550 -13.079150 0.465015
v -9.858479 -9.858464 0.866467
v -13.466922 -3.608444 0.866467
v -13.079150 -3.504550 0.465015
v -9.858479 9.858479 0.866467
v -3.608458 13.466922 0.866467
v 3.608444 13.466922 0.866467
v 9.858464 9.858479 0.866467
v 13.466922 3.608458 0.866467
v 13.466922 -3.608444 0.866467
v 9.858479 -9.858464 0.866467
v -13.466922 3.608458 0.866467
v 0.000000 13.818980 0.591339
v 13.818980 0.000000 0.591339
v -11.967592 -6.909490 0.591339
v 6.909490 -11.967578 0.591339
v 3.230416 -12.056072 43.097240
v -6.909490 11.967592 0.591339
v 12.056072 -3.230402 43.097240
v 12.056072 3.230416 43.097240
v 11.967578 6.909490 0.591339
v 11.967578 6.909490 42.896511
v 6.909490 11.967592 42.896511
v -6.909490 -11.967578 0.591339
v -9.858479 9.858479 42.621384
v -11.967592 6.909490 0.591339
v -13.466922 3.608458 42.621384
v 6.909490 11.967592 0.591339
v -13.466922 -3.608444 42.621384
v 0.000000 -13.818980 0.591339
v -13.818980 0.000000 42.896511
v -11.967592 -6.909490 42.896511
v 11.967592 -6.909476 0.591339
v -3.608458 -13.466922 42.621384
v -13.818980 0.000000 0.591339
v -6.909490 -11.967592 42.896511
v -3.230416 12.056072 43.097240
v 0.000000 13.818980 42.896511
v 13.466922 3.608458 42.621384
v 8.825656 8.825656 43.097240
v -9.858479 -9.858479 42.621384
v -8.825656 -8.825656 43.097240
v 3.608458 -13.466922 42.621384
v 9.858479 -9.858464 42.621384
v -12.056072 -3.230416 43.097240
v -11.967592 6.909490 42.896511
v -3.230416 -12.056072 43.097240
v 0.000000 -13.818980 42.896511
v -12.056072 3.230416 43.097240
v -6.909490 11.967592 42.896511
v 3.608444 13.466922 42.621384
v 3.230416 12.056072 43.097240
v 11.967592 -6.909476 42.896511
v 13.466922 -3.608444 42.621384
v -3.608458 13.466922 42.621384
v -8.825656 8.825656 43.097240
v 13.818980 0.000000 42.896511
v 9.858464 9.858479 42.621384
v 8.825656 -8.825656 43.097240
v 6.909490 -11.967578 42.896511
v -3.517962 -13.129229 40.506458
v -11.958884 6.904464 1.156586
v 0.000000 -13.931008 14.534624
v -9.611266 -9.611266 40.506458
v -13.129229 -3.517962 40.506458
v -13.129229 3.517962 40.506458
v -12.064611 -6.965504 14.534624
v -9.611266 9.611266 40.506458
v -3.517962 13.129229 40.506458
v 3.517962 13.129229 40.506458
v 9.611266 9.611266 40.506458
v 13.129229 3.517976 40.506458
v 6.904478 -11.958884 42.331261
v 13.129229 -3.517962 40.506458
v -11.495050 6.636672 0.621326
v 9.611266 -9.611252 40.506458
v 3.517976 -13.129229 40.506458
v 0.000000 -13.931008 28.417963
v 3.099306 -11.566772 0.844528
v -11.958884 -6.904464 42.331261
v 3.517976 -13.129229 2.981403
v 8.467466 -8.467466 0.844528
v 9.611266 -9.611252 2.981403
v 11.566772 -3.099306 0.844528
v -6.904464 11.958884 1.156586
v 13.129229 -3.517962 2.981403
v 11.566772 3.099306 0.844528
v -6.965504 -12.064611 28.953224
v 13.129229 3.517976 2.981403
v 8.467466 8.467466 0.844528
v 9.611266 9.611266 2.981403
v 3.099306 11.566772 0.844528
v 3.517962 13.129229 2.981403
v -3.099306 11.566772 0.844528
v -3.517962 13.129229 2.981403
v -8.467466 8.467466 0.844528
v -9.611266 9.611266 2.981403
v -11.566772 3.099306 0.844528
v -13.129229 3.517962 2.981403
v -11.566772 -3.099306 0.844528
v -13.129229 -3.517962 2.981403
v -8.467466 -8.467466 0.844528
v 13.931008 0.000000 14.534624
v -9.611266 -9.611266 2.981403
v -3.099306 -11.566772 0.844528
v -3.517962 -13.129229 2.981403
v 11.958884 -6.904464 42.331261
v 13.158698 3.525872 26.615631
v 13.808928 0.000000 42.331261
v 13.158698 3.525872 30.755556
v 0.000000 13.273344 0.621326
v 13.158698 3.525872 12.732307
v -6.636672 11.495050 0.621326
v 13.158698 3.525872 16.872217
v -12.064611 -6.965504 28.417963
v -9.632826 -9.632826 26.615631
v -9.632826 -9.632826 30.755556
v -9.632826 -9.632826 12.732307
v -9.632826 -9.632826 16.872217
v 3.525872 -13.158684 26.615631
v 3.525872 -13.158684 30.755556
v 0.000000 13.808928 1.156586
v 3.525872 -13.158684 12.732307
v 6.904464 11.958884 1.156586
v 3.525872 -13.158684 16.872217
v 6.965504 12.064611 28.953224
v -9.632826 9.632826 26.615631
v 12.064598 6.965504 28.953224
v -9.632826 9.632826 30.755556
v -6.904464 -11.958884 42.331261
v -9.632826 9.632826 12.732307
v 0.000000 -13.808928 42.331261
v -9.632826 9.632826 16.872217
v 9.632826 9.632840 26.615631
v 9.632826 9.632840 30.755556
v 9.632826 9.632840 12.732307
v 13.931008 0.000000 28.417963
v 9.632826 9.632840 16.872217
v -3.525858 -13.158698 26.615631
v -3.525858 -13.158698 30.755556
v -3.525858 -13.158698 12.732307
v -3.525858 -13.158698 16.872217
v 9.632840 -9.632826 26.615631
v 9.632840 -9.632826 30.755556
v 9.632840 -9.632826 12.732307
v 9.632840 -9.632826 16.872217
v -13.158698 3.525858 26.615631
v 12.064598 6.965504 15.069901
v -13.158698 3.525858 30.755556
v -13.158698 3.525858 12.732307
v -13.158698 3.525858 16.872217
v 3.525858 13.158698 26.615631
v 3.525858 13.158698 30.755556
v 3.525858 13.158698 12.732307
v 3.525858 13.158698 16.872217
v 13.158698 -3.525858 26.615631
v 13.158698 -3.525858 30.755556
v 13.158698 -3.525858 12.732307
v 13.158698 -3.525858 16.872217
v -13.158698 -3.525858 26.615631
v -13.158698 -3.525858 30.755556
v -13.158698 -3.525858 12.732307
v -13.158698 -3.525858 16.872217
v -3.525858 13.158698 26.615631
v -3.525858 13.158698 30.755556
v -3.525858 13.158698 12.732307
v -3.525858 13.158698 16.872217
v -6.765542 -11.718266 35.627262
v 0.000000 -13.531084 35.627262
v 0.000000 -7.865718 43.164146
v 3.932866 -6.811910 43.164146
v -3.932866 -6.811910 43.164146
v 6.765556 -11.718266 35.627262
v -11.718266 -6.765542 35.627262
v -6.811910 -3.932866 43.164146
v -13.531084 0.000000 35.627262
v -11.718266 6.765542 35.627262
v -6.765542 11.718266 35.627262
v 0.000000 13.531084 35.627262
v 6.765542 11.718266 35.627262
v 11.718266 6.765542 35.627262
v 6.811910 3.932866 43.164146
v 13.531084 0.000000 35.627262
v 7.865718 0.000000 43.164146
v 11.718266 -6.765542 35.627262
v 6.811924 -3.932852 43.164146
v 6.532582 -3.771586 0.918938
v 7.543172 0.000000 0.918938
v 3.771586 -6.532582 0.918938
v 11.718266 -6.765542 7.860600
v 13.531084 0.000000 7.860600
v 6.765556 -11.718266 7.860600
v 6.532582 3.771586 0.918938
v 11.718266 6.765542 7.860600
v 6.765542 11.718266 7.860600
v 3.771586 6.532582 0.918938
v 0.000000 7.543172 0.918938
v 0.000000 13.531084 7.860600
v -3.771586 6.532582 0.918938
v -6.765542 11.718266 7.860600
v -6.532582 3.771586 0.918938
v -11.718266 6.765542 7.860600
v -7.543172 0.000000 0.918938
v -13.531084 0.000000 7.860600
v -6.532582 -3.771586 0.918938
v -11.718266 -6.765542 7.860600
v -3.771586 -6.532582 0.918938
v -6.765542 -11.718266 7.860600
v 0.000000 -7.543172 0.918938
v 0.000000 -13.531084 7.860600
v -6.765542 11.718266 21.743925
v -11.718266 6.765542 21.743925
v 0.000000 13.531084 21.743925
v 6.765542 11.718266 21.743925
v -11.718266 -6.765542 21.743925
v -6.765542 -11.718266 21.743925
v -13.531084 0.000000 21.743925
v 13.531084 0.000000 21.743925
v 11.718266 6.765542 21.743925
v 11.718266 -6.765542 21.743925
v 6.765556 -11.718266 21.743925
v 0.000000 -13.531084 21.743925
v 6.965504 12.064611 15.069901
v 12.064611 -6.965490 28.953224
v 12.064611 -6.965490 15.069901
v -13.931008 0.000000 28.953224
v -13.931008 0.000000 15.069901
v 0.000000 13.931008 15.069901
v -13.808928 0.000000 42.331261
v -6.965504 -12.064611 15.069901
v -13.273344 0.000000 0.621326
v -6.965504 12.064611 28.417963
v -7.865718 0.000000 43.164146
v 0.000000 13.931008 28.953224
v -13.808928 0.000000 1.156586
v 6.636672 -11.495050 0.621326
v 0.000000 -13.273344 0.621326
v -6.965504 12.064611 14.534624
v -11.958884 6.904464 42.331261
v 6.965504 -12.064598 28.953224
v -11.495050 -6.636672 0.621326
v -6.811910 3.932866 43.164146
v 0.000000 -13.808928 1.156586
v 6.904478 -11.958884 1.156586
v -11.958884 -6.904464 1.156586
v 11.495050 -6.636658 0.621326
v -6.904464 11.958884 42.331261
v 6.965504 -12.064598 15.069901
v -6.636672 -11.495050 0.621326
v -3.932866 6.811910 43.164146
v 11.958884 -6.904464 1.156586
v -6.904464 -11.958884 1.156586
v 13.273344 0.000000 0.621326
v 0.000000 13.808928 42.331261
v -12.064611 6.965504 28.953224
v 0.000000 7.865718 43.164146
v 13.808928 0.000000 1.156586
v 11.495050 6.636672 0.621326
v 6.904464 11.958884 42.331261
v -12.064611 6.965504 15.069901
v 3.932866 6.811910 43.164146
v 11.958884 6.904464 1.156586
v 6.636672 11.495050 0.621326
v 11.958884 6.904464 42.331261
v 0.000000 -13.931008 28.953224
v -6.965504 -12.064611 28.417963
v 6.965504 12.064611 28.417963
v 6.965504 -12.064598 28.417963
v -6.965504 12.064611 28.953224
v 12.064598 6.965504 28.417963
v 13.931008 0.000000 28.953224
v -12.064611 -6.965504 28.953224
v -12.064611 6.965504 28.417963
v 12.064611 -6.965490 28.417963
v -13.931008 0.000000 28.417963
v 0.000000 13.931008 28.417963
v -3.655162 13.641264 28.685600
v -13.641264 -3.655162 28.685600
v 13.641264 -3.655162 28.685600
v 3.655162 13.641264 28.685600
v -13.641264 3.655162 28.685600
v 9.986102 -9.986102 28.685600
v -3.655162 -13.641264 28.685600
v 9.986102 9.986102 28.685600
v -9.986102 9.986102 28.685600
v 3.655176 -13.641264 28.685600
v -9.986102 -9.986102 28.685600
v 13.641264 3.655176 28.685600
v -6.965504 12.064611 15.069901
v 6.965504 -12.064598 14.534624
v 13.931008 0.000000 15.069901
v 12.064598 6.965504 14.534624
v -12.064611 -6.965504 15.069901
v -12.064611 6.965504 14.534624
v -6.965504 -12.064611 14.534624
v 0.000000 -13.931008 15.069901
v 6.965504 12.064611 14.534624
v 12.064611 -6.965490 14.534624
v -13.931008 0.000000 14.534624
v 0.000000 13.931008 14.534624
v -3.655162 13.641264 14.802261
v -13.641264 -3.655162 14.802261
v 13.641264 -3.655162 14.802261
v 3.655162 13.641264 14.802261
v -13.641264 3.655162 14.802261
v 9.986102 -9.986102 14.802261
v -3.655162 -13.641264 14.802261
v 9.986102 9.986102 14.802261
v -9.986102 9.986102 14.802261
v 3.655176 -13.641264 14.802261
v -9.986102 -9.986102 14.802261
v 13.641264 3.655176 14.802261
v -6.975178 -12.081369 0.866467
v -6.774334 -11.733498 0.465015
v -12.081369 -6.975178 0.866467
v -11.733498 -6.774334 0.465015
v -13.950370 0.000000 0.866467
v -13.548668 0.000000 0.465015
v -12.081369 6.975178 0.866467
v -11.733498 6.774334 0.465015
v -6.975178 12.081369 0.866467
v -6.774334 11.733498 0.465015
v 0.000000 13.950370 0.866467
v 0.000000 13.548668 0.465015
v 0.000000 0.000000 43.164146
v 6.975178 12.081369 0.866467
v 6.774334 11.733498 0.465015
v 12.081369 6.975192 0.866467
v 11.733483 6.774334 0.465015
v 13.950356 0.000000 0.866467
v 13.548668 0.000000 0.465015
v 12.081369 -6.975178 0.866467
v 11.733498 -6.774334 0.465015
v 6.975192 -12.081369 0.866467
v 6.774348 -11.733483 0.465015
v 0.000000 -13.548668 0.465015
v 0.000000 -13.950356 0.866467
v 0.000000 0.000000 0.918938
v 6.975192 -12.081369 42.621384
v 6.098386 -10.562706 43.097240
v 12.081369 -6.975178 42.621384
v 10.562706 -6.098372 43.097240
v 13.950370 0.000000 42.621384
v 12.196772 0.000000 43.097240
v 12.081369 6.975192 42.621384
v 10.562706 6.098386 43.097240
v 6.975178 12.081369 42.621384
v 6.098386 10.562706 43.097240
v 0.000000 13.950370 42.621384
v 0.000000 12.196772 43.097240
v -6.975178 12.081369 42.621384
v -6.098386 10.562706 43.097240
v -12.081369 6.975178 42.621384
v -10.562706 6.098386 43.097240
v -13.950370 0.000000 42.621384
v -12.196772 0.000000 43.097240
v -12.081369 -6.975178 42.621384
v -10.562706 -6.098386 43.097240
v 0.000000 -12.196758 43.097240
v 0.000000 -13.950356 42.621384
v -6.975178 -12.081369 42.621384
v -6.098386 -10.562706 43.097240
v 0.000000 -13.600552 40.506458
v -6.800276 -11.778423 40.506458
v -11.778423 -6.800276 40.506458
v -13.600552 0.000000 40.506458
v -11.778423 6.800276 40.506458
v -6.800276 11.778423 40.506458
v 0.000000 13.600552 40.506458
v 6.800276 11.778423 40.506458
v 11.778423 6.800276 40.506458
v 13.600552 0.000000 40.506458
v 11.778423 -6.800262 40.506458
v 6.800276 -11.778423 40.506458
v 10.134124 -5.850936 0.844528
v 11.778423 -6.800262 2.981388
v 11.701872 0.000000 0.844528
v 13.600552 0.000000 2.981388
v 10.134124 5.850936 0.844528
v 11.778423 6.800276 2.981388
v 5.850936 10.134124 0.844528
v 6.800276 11.778423 2.981388
v 0.000000 11.701872 0.844528
v 0.000000 13.600552 2.981388
v -5.850936 10.134124 0.844528
v -6.800276 11.778423 2.981388
v -10.134124 5.850936 0.844528
v -11.778423 6.800276 2.981388
v -11.701872 0.000000 0.844528
v -13.600552 0.000000 2.981388
v -10.134124 -5.850936 0.844528
v -11.778423 -6.800276 2.981388
v -5.850936 -10.134124 0.844528
v -6.800276 -11.778423 2.981388
v 0.000000 -13.600552 2.981388
v 0.000000 -11.701872 0.844528
v 5.850950 -10.134124 0.844528
v 6.800276 -11.778423 2.981388
v -6.815536 11.804856 30.755556
v -6.815536 11.804856 26.615631
v -6.815536 11.804856 16.872217
v -6.815536 11.804856 12.732307
v 0.000000 13.631072 12.732307
v 0.000000 13.631072 16.872217
v 0.000000 13.631072 26.615631
v 0.000000 13.631072 30.755556
v -11.804856 -6.815536 30.755556
v -11.804856 -6.815536 26.615631
v -11.804856 -6.815536 16.872217
v -11.804856 -6.815536 12.732307
v -13.631072 0.000000 12.732307
v -13.631072 0.000000 16.872217
v -13.631072 0.000000 26.615631
v -13.631072 0.000000 30.755556
v 13.631072 0.000000 30.755556
v 13.631072 0.000000 26.615631
v 13.631072 0.000000 16.872217
v 13.631072 0.000000 12.732307
v 11.804856 -6.815522 12.732307
v 11.804856 -6.815522 16.872217
v 11.804856 -6.815522 26.615631
v 11.804856 -6.815522 30.755556
v 6.815536 11.804856 12.732307
v 6.815536 11.804856 16.872217
v 6.815536 11.804856 26.615631
v 6.815536 11.804856 30.755556
v -11.804856 6.815536 12.732307
v -11.804856 6.815536 16.872217
v -11.804856 6.815536 26.615631
v -11.804856 6.815536 30.755556
v 6.815536 -11.804842 12.732307
v 6.815536 -11.804842 16.872217
v 6.815536 -11.804842 26.615631
v 6.815536 -11.804842 30.755556
v 0.000000 -13.631072 30.755556
v 0.000000 -13.631072 26.615631
v 0.000000 -13.631072 16.872217
v 0.000000 -13.631072 12.732307
v -6.815536 -11.804856 12.732307
v -6.815536 -11.804856 16.872217
v -6.815536 -11.804856 26.615631
v -6.815536 -11.804856 30.755556
v 11.804856 6.815536 12.732307
v 11.804856 6.815536 16.872217
v 11.804856 6.815536 26.615631
v 11.804856 6.815536 30.755556
v 0.000000 -14.130969 28.685600
v -7.065478 -12.237778 28.685600
v 7.065478 12.237778 28.685600
v 7.065492 -12.237778 28.685600
v -7.065478 12.237778 28.685600
v 12.237778 7.065492 28.685600
v 14.130969 0.000000 28.685600
v -12.237778 -7.065478 28.685600
v -12.237778 7.065478 28.685600
v 12.237778 -7.065478 28.685600
v -14.130969 0.000000 28.685600
v 0.000000 14.130969 28.685600
v -7.065478 12.237778 14.802261
v 7.065492 -12.237778 14.802261
v 14.130969 0.000000 14.802261
v 12.237778 7.065492 14.802261
v -12.237778 -7.065478 14.802261
v -12.237778 7.065478 14.802261
v -7.065478 -12.237778 14.802261
v 0.000000 -14.130969 14.802261
v 7.065478 12.237778 14.802261
v 12.237778 -7.065478 14.802261
v -14.130969 0.000000 14.802261
v 0.000000 14.130969 14.802261
vn 0.9617 0.2577 -0.0931
vn 1.0000 -0.0000 -0.0031
vn 0.9659 0.2588 -0.0031
vn 0.9639 0.2583 0.0641
vn 0.8660 0.5000 -0.0031
vn -0.7040 -0.7040 -0.0931
vn -0.8660 -0.5000 -0.0031
vn -0.7071 -0.7071 -0.0031
vn -0.7057 -0.7057 0.0641
vn -0.5000 -0.8660 -0.0031
vn 0.2577 -0.9617 -0.0931
vn -0.0000 -1.0000 -0.0031
vn 0.2588 -0.9659 -0.0031
vn 0.2583 -0.9639 0.0641
vn 0.5000 -0.8660 -0.0031
vn -0.7040 0.7040 -0.0931
vn -0.5000 0.8660 -0.0031
vn -0.7071 0.7071 -0.0031
vn -0.7057 0.7057 0.0641
vn -0.8660 0.5000 -0.0031
vn -0.0033 -0.0123 -0.9999
vn -0.0413 -0.0715 -0.9966
vn -0.0035 -0.0060 -1.0000
vn -0.0000 -0.0069 -1.0000
vn -0.0000 -0.0826 -0.9966
vn -0.0264 -0.0985 -0.9948
vn -0.2577 -0.9617 -0.0931
vn -0.2588 -0.9659 -0.0031
vn -0.2583 -0.9639 0.0641
vn 0.9617 -0.2577 -0.0931
vn 0.8660 -0.5000 -0.0031
vn 0.9659 -0.2588 -0.0031
vn 0.9639 -0.2583 0.0641
vn -0.9617 0.2577 -0.0931
vn -0.9659 0.2588 -0.0031
vn -0.9639 0.2583 0.0641
vn -1.0000 -0.0000 -0.0031
vn 0.2577 0.9617 -0.0931
vn 0.5000 0.8660 -0.0031
vn 0.2588 0.9659 -0.0031
vn 0.2583 0.9639 0.0641
vn -0.0000 1.0000 -0.0031
vn -0.0090 0.0090 -0.9999
vn -0.0413 0.0715 -0.9966
vn -0.0035 0.0060 -1.0000
vn -0.0060 0.0035 -1.0000
vn -0.0715 0.0413 -0.9966
vn -0.0721 0.0721 -0.9948
vn -0.9617 -0.2577 -0.0931
vn -0.9659 -0.2588 -0.0031
vn -0.9639 -0.2583 0.0641
vn -0.2577 0.9617 -0.0931
vn -0.2588 0.9659 -0.0031
vn -0.2583 0.9639 0.0641
vn 0.2583 0.9639 -0.0641
vn 0.5000 0.8660 0.0031
vn 0.2588 0.9659 0.0031
vn 0.2577 0.9617 0.0931
vn -0.0000 1.0000 0.0031
vn -0.9639 0.2583 -0.0641
vn -0.8660 0.5000 0.0031
vn -0.9659 0.2588 0.0031
vn -0.9617 0.2577 0.0931
vn -1.0000 -0.0000 0.0031
vn 0.7057 -0.7056 -0.0641
vn 0.5000 -0.8660 0.0031
vn 0.7071 -0.7071 0.0031
vn 0.7040 -0.7040 0.0931
vn 0.8660 -0.5000 0.0031
vn 0.7057 0.7057 -0.0641
vn 0.8660 0.5000 0.0031
vn 0.7071 0.7071 0.0031
vn 0.7040 0.7040 0.0931
vn -0.7057 0.7057 -0.0641
vn -0.5000 0.8660 0.0031
vn -0.7071 0.7071 0.0031
vn -0.7040 0.7040 0.0931
vn -0.0123 0.0033 -0.9999
vn -0.0069 -0.0000 -1.0000
vn -0.0826 -0.0000 -0.9966
vn -0.0985 0.0264 -0.9948
vn 0.2583 -0.9639 -0.0641
vn -0.0000 -1.0000 0.0031
vn 0.2588 -0.9659 0.0031
vn 0.2577 -0.9617 0.0931
vn 0.9639 0.2583 -0.0641
vn 1.0000 -0.0000 0.0031
vn 0.9659 0.2588 0.0031
vn 0.9617 0.2577 0.0931
vn -0.2583 0.9639 -0.0641
vn -0.2588 0.9659 0.0031
vn -0.2577 0.9617 0.0931
vn -0.0078 -0.0078 0.9999
vn -0.0624 -0.0360 0.9974
vn -0.0631 -0.0631 0.9960
vn -0.0360 -0.0624 0.9974
vn -0.0030 -0.0052 1.0000
vn -0.0052 -0.0030 1.0000
vn -0.9639 -0.2583 -0.0641
vn -0.9659 -0.2588 0.0031
vn -0.9617 -0.2577 0.0931
vn -0.8660 -0.5000 0.0031
vn 0.9639 -0.2583 -0.0641
vn 0.9659 -0.2588 0.0031
vn 0.9617 -0.2577 0.0931
vn 0.0090 -0.0090 -0.9999
vn 0.0413 -0.0715 -0.9966
vn 0.0035 -0.0060 -1.0000
vn 0.0060 -0.0035 -1.0000
vn 0.0715 -0.0413 -0.9966
vn 0.0721 -0.0721 -0.9948
vn 0.0090 0.0090 -0.9999
vn 0.0715 0.0413 -0.9966
vn 0.0060 0.0035 -1.0000
vn 0.0035 0.0060 -1.0000
vn 0.0413 0.0715 -0.9966
vn 0.0721 0.0721 -0.9948
vn 0.7040 -0.7040 -0.0931
vn 0.7071 -0.7071 -0.0031
vn 0.7057 -0.7056 0.0641
vn 0.0033 -0.0123 -0.9999
vn 0.0264 -0.0985 -0.9948
vn 0.0123 0.0033 -0.9999
vn 0.0826 -0.0000 -0.9966
vn 0.0069 -0.0000 -1.0000
vn 0.0985 0.0264 -0.9948
vn -0.0123 -0.0033 -0.9999
vn -0.0060 -0.0035 -1.0000
vn -0.0715 -0.0413 -0.9966
vn -0.0985 -0.0264 -0.9948
vn -0.0033 0.0123 -0.9999
vn -0.0000 0.0826 -0.9966
vn -0.0000 0.0069 -1.0000
vn -0.0264 0.0985 -0.9948
vn -0.0090 -0.0090 -0.9999
vn -0.0721 -0.0721 -0.9948
vn 0.0123 -0.0033 -0.9999
vn 0.0985 -0.0264 -0.9948
vn -0.5000 0.8660 -0.0000
vn -0.7071 0.7071 -0.0000
vn -0.8660 0.5000 -0.0000
vn 0.0033 0.0123 -0.9999
vn 0.0264 0.0985 -0.9948
vn 0.7040 0.7040 -0.0931
vn 0.7071 0.7071 -0.0031
vn 0.7057 0.7057 0.0641
vn 0.0106 -0.0028 0.9999
vn 0.0624 -0.0360 0.9974
vn 0.0862 -0.0231 0.9960
vn 0.0720 -0.0000 0.9974
vn 0.0060 -0.0000 1.0000
vn 0.0052 -0.0030 1.0000
vn 0.8660 -0.5000 -0.0000
vn 0.9659 -0.2588 -0.0000
vn 1.0000 -0.0000 -0.0000
vn -0.0060 -0.0000 1.0000
vn -0.0106 -0.0028 0.9999
vn -0.0720 -0.0000 0.9974
vn -0.0862 -0.0231 0.9960
vn -1.0000 -0.0000 -0.0000
vn -0.9659 -0.2588 -0.0000
vn -0.8660 -0.5000 -0.0000
vn -0.7057 -0.7057 -0.0641
vn -0.7071 -0.7071 0.0031
vn -0.7040 -0.7040 0.0931
vn -0.5000 -0.8660 0.0031
vn -0.5000 -0.8660 -0.0000
vn -0.2588 -0.9659 -0.0000
vn -0.2577 -0.9617 0.0931
vn -0.0000 -1.0000 -0.0000
vn -0.0030 0.0052 1.0000
vn -0.0000 0.0060 1.0000
vn -0.0028 0.0106 0.9999
vn -0.0000 0.0720 0.9974
vn -0.0231 0.0862 0.9960
vn -0.0360 0.0624 0.9974
vn -0.0000 1.0000 -0.0000
vn -0.2588 0.9659 -0.0000
vn 0.0106 0.0028 0.9999
vn 0.0862 0.0231 0.9960
vn 0.0624 0.0360 0.9974
vn 0.0052 0.0030 1.0000
vn 0.2588 -0.9659 -0.0000
vn 0.5000 -0.8660 -0.0000
vn -0.0000 -0.6125 0.7905
vn -0.0231 -0.0862 0.9960
vn -0.1602 -0.5979 0.7854
vn -0.3063 -0.5305 0.7905
vn 0.0028 -0.0106 0.9999
vn -0.0000 -0.0720 0.9974
vn 0.0231 -0.0862 0.9960
vn 0.0360 -0.0624 0.9974
vn 0.0030 -0.0052 1.0000
vn -0.0000 -0.0060 1.0000
vn 0.8660 0.5000 -0.0000
vn 0.7071 0.7071 -0.0000
vn 0.5000 0.8660 -0.0000
vn -0.0052 0.0030 1.0000
vn -0.0078 0.0078 0.9999
vn -0.0631 0.0631 0.9960
vn -0.0624 0.0360 0.9974
vn 0.9659 0.2588 -0.0000
vn 0.0078 0.0078 0.9999
vn 0.0631 0.0631 0.9960
vn 0.0360 0.0624 0.9974
vn 0.0030 0.0052 1.0000
vn -0.7071 -0.7071 -0.0000
vn 0.0078 -0.0078 0.9999
vn 0.0631 -0.0631 0.9960
vn 0.7071 -0.7071 -0.0000
vn -0.0106 0.0028 0.9999
vn -0.0862 0.0231 0.9960
vn -0.9659 0.2588 -0.0000
vn 0.0028 0.0106 0.9999
vn 0.0231 0.0862 0.9960
vn 0.2588 0.9659 -0.0000
vn -0.9263 0.2482 -0.2835
vn -0.8642 0.4990 -0.0642
vn -0.9979 -0.0000 -0.0642
vn -0.9589 -0.0000 -0.2838
vn -0.2373 0.8855 0.3994
vn -0.4978 0.8623 0.0931
vn -0.0000 0.9957 0.0931
vn -0.0000 0.9166 0.3998
vn -0.0000 0.3402 -0.9403
vn -0.0905 0.3376 -0.9369
vn -0.1701 0.2946 -0.9403
vn -0.9263 0.2482 0.2835
vn -0.9979 -0.0000 0.0642
vn -0.8642 0.4990 0.0642
vn -0.8304 0.4794 0.2838
vn 0.8855 0.2373 -0.3994
vn 0.9957 -0.0000 -0.0931
vn 0.8623 0.4978 -0.0931
vn 0.7938 0.4583 -0.3998
vn -0.2373 0.8855 -0.3994
vn -0.0000 0.9957 -0.0931
vn -0.4978 0.8623 -0.0931
vn -0.4583 0.7938 -0.3998
vn 0.6483 -0.6483 0.3994
vn 0.8623 -0.4978 0.0931
vn 0.4978 -0.8623 0.0931
vn 0.4583 -0.7938 0.3999
vn 0.2946 -0.1701 -0.9403
vn 0.3376 -0.0905 -0.9369
vn 0.3402 -0.0000 -0.9403
vn -0.6483 0.6483 0.3994
vn -0.8623 0.4978 0.0931
vn -0.4583 0.7938 0.3998
vn 0.6483 -0.6483 -0.3994
vn 0.8623 -0.4978 -0.0931
vn 0.7938 -0.4583 -0.3998
vn 0.4978 -0.8623 -0.0931
vn -0.9263 -0.2482 -0.2835
vn -0.8642 -0.4990 -0.0642
vn -0.8304 -0.4794 -0.2838
vn 0.2482 -0.9263 -0.2835
vn -0.0000 -0.9979 -0.0642
vn 0.4990 -0.8642 -0.0642
vn 0.4794 -0.8304 -0.2838
vn -0.6781 0.6781 0.2835
vn -0.4990 0.8642 0.0642
vn -0.4794 0.8304 0.2838
vn -0.2373 -0.8855 0.3994
vn -0.0000 -0.9957 0.0931
vn -0.4978 -0.8623 0.0931
vn -0.4583 -0.7938 0.3998
vn -0.8855 -0.2373 0.3994
vn -0.8623 -0.4978 0.0931
vn -0.9957 -0.0000 0.0931
vn -0.9166 -0.0000 0.3998
vn 0.8855 0.2373 0.3994
vn 0.8623 0.4978 0.0931
vn 0.9957 -0.0000 0.0931
vn 0.9166 -0.0000 0.3998
vn -0.2373 -0.8855 -0.3994
vn -0.4978 -0.8623 -0.0931
vn -0.0000 -0.9957 -0.0931
vn -0.0000 -0.9166 -0.3998
vn -0.8855 -0.2373 -0.3994
vn -0.9957 -0.0000 -0.0931
vn -0.8623 -0.4978 -0.0931
vn -0.7938 -0.4583 -0.3998
vn 0.6781 -0.6781 -0.2835
vn 0.8642 -0.4990 -0.0642
vn 0.8304 -0.4794 -0.2838
vn 0.1701 -0.2946 -0.9403
vn 0.2472 -0.2472 -0.9369
vn -0.6781 -0.6781 -0.2835
vn -0.4990 -0.8642 -0.0642
vn -0.4794 -0.8304 -0.2838
vn -0.2482 0.9263 0.2835
vn -0.0000 0.9979 0.0642
vn -0.0000 0.9589 0.2838
vn -0.6483 0.6483 -0.3994
vn -0.8623 0.4978 -0.0931
vn -0.7938 0.4583 -0.3998
vn 0.8855 -0.2373 0.3994
vn 0.7938 -0.4583 0.3998
vn 0.9263 -0.2482 -0.2835
vn 0.9979 -0.0000 -0.0642
vn 0.9589 -0.0000 -0.2838
vn -0.0000 -0.3402 -0.9403
vn 0.0905 -0.3376 -0.9369
vn 0.2373 -0.8855 0.3994
vn -0.0000 -0.9166 0.3998
vn 0.8855 -0.2373 -0.3994
vn 0.9166 -0.0000 -0.3998
vn 0.2482 0.9263 0.2835
vn 0.4990 0.8642 0.0642
vn 0.4794 0.8304 0.2838
vn -0.6483 -0.6483 0.3994
vn -0.7938 -0.4583 0.3998
vn -0.2482 -0.9263 -0.2835
vn -0.2583 -0.9639 -0.0641
vn -0.0000 -0.9589 -0.2838
vn 0.6483 0.6483 0.3994
vn 0.4978 0.8623 0.0931
vn 0.7938 0.4583 0.3999
vn -0.2588 -0.9659 0.0031
vn -0.4377 -0.4377 0.7854
vn -0.5305 -0.3063 0.7905
vn -0.5979 -0.1602 0.7854
vn -0.6125 -0.0000 0.7905
vn -0.5979 0.1602 0.7854
vn -0.5305 0.3063 0.7905
vn -0.4377 0.4377 0.7854
vn -0.3063 0.5305 0.7905
vn -0.1602 0.5979 0.7854
vn -0.0000 0.6125 0.7905
vn 0.1602 0.5979 0.7854
vn 0.3063 0.5305 0.7905
vn 0.4377 0.4377 0.7854
vn 0.5304 0.3062 0.7905
vn 0.5979 0.1602 0.7854
vn 0.6125 -0.0000 0.7905
vn 0.5979 -0.1602 0.7854
vn 0.5304 -0.3063 0.7905
vn 0.4377 -0.4377 0.7854
vn 0.3062 -0.5304 0.7905
vn 0.1602 -0.5979 0.7854
vn 0.2373 -0.8855 -0.3994
vn 0.4583 -0.7938 -0.3998
vn -0.6483 -0.6483 -0.3994
vn -0.4583 -0.7938 -0.3998
vn -0.8855 0.2373 -0.3994
vn -0.9166 -0.0000 -0.3998
vn 0.2373 0.8855 -0.3994
vn 0.4978 0.8623 -0.0931
vn -0.0000 0.9166 -0.3998
vn 0.3376 0.0905 -0.9369
vn 0.2946 0.1701 -0.9403
vn 0.2482 -0.9263 0.2835
vn 0.4990 -0.8642 0.0642
vn -0.0000 -0.9979 0.0642
vn -0.0000 -0.9589 0.2838
vn -0.9263 -0.2482 0.2835
vn -0.8642 -0.4990 0.0642
vn -0.9589 -0.0000 0.2838
vn -0.2472 0.2472 -0.9369
vn -0.2946 0.1701 -0.9403
vn -0.6781 0.6781 -0.2835
vn -0.4990 0.8642 -0.0642
vn -0.8304 0.4794 -0.2838
vn 0.2472 0.2472 -0.9369
vn 0.1701 0.2946 -0.9403
vn 0.6781 -0.6781 0.2835
vn 0.8642 -0.4990 0.0642
vn 0.4794 -0.8304 0.2838
vn -0.6781 -0.6781 0.2835
vn -0.4990 -0.8642 0.0642
vn -0.8304 -0.4794 0.2838
vn -0.3376 0.0905 -0.9369
vn -0.3402 -0.0000 -0.9403
vn -0.2482 0.9263 -0.2835
vn -0.0000 0.9979 -0.0642
vn -0.4794 0.8304 -0.2838
vn 0.0905 0.3376 -0.9369
vn -0.2482 -0.9263 0.2835
vn -0.4794 -0.8304 0.2838
vn 0.9263 -0.2482 0.2835
vn 0.9979 -0.0000 0.0642
vn 0.8304 -0.4794 0.2838
vn -0.3376 -0.0905 -0.9369
vn -0.2946 -0.1701 -0.9403
vn 0.2482 0.9263 -0.2835
vn 0.4990 0.8642 -0.0642
vn -0.0000 0.9589 -0.2838
vn 0.9263 0.2482 0.2835
vn 0.8642 0.4990 0.0642
vn 0.9589 -0.0000 0.2838
vn -0.2472 -0.2472 -0.9369
vn -0.1701 -0.2946 -0.9403
vn 0.6781 0.6781 -0.2835
vn 0.8642 0.4990 -0.0642
vn 0.4794 0.8304 -0.2838
vn 0.6781 0.6781 0.2835
vn 0.8304 0.4794 0.2838
vn -0.0905 -0.3376 -0.9369
vn 0.9263 0.2482 -0.2835
vn 0.8304 0.4794 -0.2838
vn -0.0028 -0.0106 0.9999
vn 0.2373 0.8855 0.3994
vn 0.4583 0.7938 0.3998
vn -0.8855 0.2373 0.3994
vn -0.7938 0.4583 0.3998
vn 0.7938 0.4583 0.3998
vn 0.4583 -0.7938 0.3998
vn 0.6483 0.6483 -0.3994
vn 0.4583 0.7938 -0.3998
vn -0.0000 -0.0000 -1.0000
vn -0.0000 -0.0000 1.0000
vn -0.2588 -0.9659 -0.0039
vn -0.9659 0.2588 -0.0039
vn -0.0005 0.0019 -1.0000
vn -0.9659 0.2588 0.0039
vn 0.0019 -0.0005 -1.0000
vn -0.9659 -0.2588 -0.0039
vn 0.2588 -0.9659 -0.0039
vn -0.7071 0.7071 0.0039
vn 0.7071 -0.7071 -0.0039
vn 0.0014 -0.0014 -1.0000
vn -0.7071 -0.7071 -0.0039
vn -0.2588 0.9659 0.0039
vn 0.9659 -0.2588 -0.0039
vn 0.0005 -0.0019 -1.0000
vn 0.2588 0.9659 0.0039
vn -0.7071 0.7071 -0.0039
vn -0.2588 0.9659 -0.0039
vn 0.2588 0.9659 -0.0039
vn 0.7071 0.7071 -0.0039
vn 0.9659 0.2588 -0.0039
vn 0.1858 -0.6932 -0.6964
vn -0.0000 0.0007 -1.0000
vn -0.0003 0.0006 -1.0000
vn 0.3590 -0.6218 -0.6961
vn 0.2588 -0.9659 0.0039
vn -0.0000 -0.7180 -0.6960
vn 0.5075 -0.5075 -0.6964
vn -0.0014 0.0014 -1.0000
vn -0.0006 0.0003 -1.0000
vn 0.6218 -0.3590 -0.6961
vn 0.7071 -0.7071 0.0039
vn 0.6932 -0.1858 -0.6964
vn -0.0019 0.0005 -1.0000
vn -0.0007 -0.0000 -1.0000
vn 0.7180 -0.0000 -0.6960
vn 0.9659 -0.2588 0.0039
vn 0.6932 0.1857 -0.6964
vn -0.0019 -0.0005 -1.0000
vn -0.0006 -0.0003 -1.0000
vn 0.6218 0.3590 -0.6961
vn 0.9659 0.2588 0.0039
vn 0.5075 0.5075 -0.6964
vn -0.0014 -0.0014 -1.0000
vn -0.0003 -0.0006 -1.0000
vn 0.3590 0.6218 -0.6960
vn 0.7071 0.7071 0.0039
vn 0.1858 0.6932 -0.6964
vn -0.0005 -0.0019 -1.0000
vn -0.0000 -0.0007 -1.0000
vn -0.0000 0.7180 -0.6961
vn -0.1858 0.6932 -0.6964
vn 0.0003 -0.0006 -1.0000
vn -0.3590 0.6218 -0.6960
vn -0.5075 0.5075 -0.6964
vn 0.0006 -0.0003 -1.0000
vn -0.6218 0.3590 -0.6960
vn -0.6932 0.1857 -0.6964
vn 0.0007 -0.0000 -1.0000
vn -0.7180 -0.0000 -0.6961
vn -0.6932 -0.1858 -0.6964
vn 0.0019 0.0005 -1.0000
vn 0.0006 0.0003 -1.0000
vn -0.6218 -0.3590 -0.6960
vn -0.9659 -0.2588 0.0039
vn -0.5075 -0.5075 -0.6964
vn 0.0014 0.0014 -1.0000
vn 0.0003 0.0006 -1.0000
vn -0.3590 -0.6218 -0.6961
vn -0.7071 -0.7071 0.0039
vn -0.1858 -0.6932 -0.6964
vn 0.0005 0.0019 -1.0000
vn -0.2588 -0.9659 0.0039
vn -0.5000 -0.8660 -0.0039
vn -0.0000 -1.0000 -0.0039
vn -1.0000 -0.0000 -0.0039
vn -0.8660 0.5000 -0.0039
vn -0.8660 0.5000 0.0039
vn -1.0000 -0.0000 0.0039
vn -0.8660 -0.5000 -0.0039
vn 0.5000 -0.8660 -0.0039
vn -0.5000 0.8660 0.0039
vn 0.8660 -0.5000 -0.0039
vn -0.0000 1.0000 0.0039
vn 1.0000 -0.0000 -0.0039
vn 0.5000 0.8660 0.0039
vn -0.5000 0.8660 -0.0039
vn -0.0000 1.0000 -0.0039
vn 0.5000 0.8660 -0.0039
vn 0.8660 0.5000 -0.0039
vn 0.5000 -0.8660 0.0039
vn -0.0000 -1.0000 0.0039
vn 0.8660 -0.5000 0.0039
vn 1.0000 -0.0000 0.0039
vn 0.8660 0.5000 0.0039
vn -0.8660 -0.5000 0.0039
vn -0.5000 -0.8660 0.0039
vt 0.396880 0.048895
vt 0.458610 0.006046
vt 0.456784 0.050732
vt 0.516539 0.052301
vt 0.454826 0.094836
vt 0.372849 0.635805
vt 0.431945 0.595937
vt 0.429502 0.636836
vt 0.485945 0.637875
vt 0.427040 0.677235
vt 0.365189 0.794614
vt 0.422915 0.756717
vt 0.420852 0.796289
vt 0.476317 0.797970
vt 0.418770 0.835720
vt 0.383412 0.386963
vt 0.443364 0.346699
vt 0.441538 0.388350
vt 0.499448 0.389744
vt 0.439683 0.429934
vt 0.665819 0.072321
vt 0.680587 0.028484
vt 0.692972 0.074759
vt 0.654331 0.097044
vt 0.620467 0.063161
vt 0.646687 0.039164
vt 0.368697 0.715753
vt 0.424911 0.717113
vt 0.481004 0.718487
vt 0.357315 0.952404
vt 0.414671 0.914280
vt 0.412587 0.954306
vt 0.467481 0.956456
vt 0.410486 0.994657
vt 0.380136 0.470006
vt 0.437796 0.471450
vt 0.495237 0.472903
vt 0.435900 0.512966
vt 0.389465 0.220559
vt 0.450428 0.179929
vt 0.448601 0.221682
vt 0.507604 0.222819
vt 0.446916 0.263283
vt 0.814151 0.158055
vt 0.844731 0.192763
vt 0.798463 0.180351
vt 0.798485 0.135744
vt 0.844760 0.123359
vt 0.852432 0.158064
vt 0.376936 0.553309
vt 0.434013 0.554554
vt 0.490792 0.555806
vt 0.386593 0.303614
vt 0.445163 0.304983
vt 0.503522 0.306363
vt 0.037995 0.221110
vt 0.096765 0.178316
vt 0.096415 0.220172
vt 0.155060 0.219256
vt 0.095974 0.261962
vt 0.036203 0.470749
vt 0.093919 0.428285
vt 0.093417 0.469647
vt 0.150849 0.468568
vt 0.092923 0.510977
vt 0.035943 0.871511
vt 0.090156 0.832847
vt 0.089954 0.871160
vt 0.144101 0.870839
vt 0.089719 0.909209
vt 0.038127 0.137546
vt 0.097066 0.094005
vt 0.096984 0.136409
vt 0.156131 0.135296
vt 0.036780 0.387820
vt 0.094965 0.345302
vt 0.094439 0.386838
vt 0.152313 0.385877
vt 0.800923 0.108591
vt 0.776200 0.097103
vt 0.810082 0.063239
vt 0.834079 0.089459
vt 0.035919 0.794218
vt 0.090745 0.754159
vt 0.090411 0.793740
vt 0.145116 0.793295
vt 0.037925 0.051817
vt 0.096866 0.006847
vt 0.097002 0.050661
vt 0.156500 0.049232
vt 0.037449 0.304585
vt 0.095484 0.303675
vt 0.153737 0.302786
vt 0.622875 0.419484
vt 0.562557 0.431009
vt 0.578131 0.393651
vt 0.602697 0.361484
vt 0.648707 0.407495
vt 0.625408 0.447850
vt 0.035829 0.553290
vt 0.092424 0.552332
vt 0.149240 0.551400
vt 0.092018 0.593471
vt 0.035984 0.948515
vt 0.089367 0.947526
vt 0.142755 0.946810
vt 0.088955 0.985978
vt 0.616320 0.157960
vt 0.585741 0.123253
vt 0.632009 0.135664
vt 0.631987 0.180271
vt 0.585712 0.192657
vt 0.578040 0.157951
vt 0.715188 0.256923
vt 0.680481 0.287503
vt 0.692892 0.241235
vt 0.737499 0.241256
vt 0.749885 0.287531
vt 0.715180 0.295204
vt 0.361288 0.873190
vt 0.416721 0.874901
vt 0.471903 0.876603
vt 0.629596 0.108509
vt 0.596449 0.089361
vt 0.665737 0.243647
vt 0.620389 0.252776
vt 0.654272 0.218913
vt 0.646589 0.276795
vt 0.764735 0.072368
vt 0.737579 0.074781
vt 0.749991 0.028512
vt 0.783883 0.039221
vt 0.800875 0.207506
vt 0.810005 0.252854
vt 0.776141 0.218971
vt 0.834023 0.226654
vt 0.715283 0.059092
vt 0.715292 0.020812
vt 0.629549 0.207424
vt 0.596393 0.226557
vt 0.209637 0.385897
vt 0.268964 0.344299
vt 0.267785 0.385845
vt 0.325938 0.385817
vt 0.266600 0.427299
vt 0.764652 0.243695
vt 0.783785 0.276851
vt 0.393025 0.136781
vt 0.452605 0.137774
vt 0.512016 0.138777
vt 0.801850 0.419484
vt 0.822028 0.361484
vt 0.846593 0.393651
vt 0.862168 0.431009
vt 0.799316 0.447850
vt 0.776017 0.407495
vt 0.195106 0.947219
vt 0.250472 0.909847
vt 0.249104 0.948604
vt 0.303031 0.950334
vt 0.247819 0.987523
vt 0.625408 0.494449
vt 0.609031 0.471150
vt 0.562557 0.511290
vt 0.557365 0.471150
vt 0.206181 0.551551
vt 0.264220 0.510112
vt 0.263043 0.551783
vt 0.319835 0.552038
vt 0.261791 0.593251
vt 0.035767 0.634945
vt 0.091801 0.634158
vt 0.148053 0.633403
vt 0.091586 0.674455
vt 0.201928 0.713859
vt 0.259024 0.674360
vt 0.257928 0.714129
vt 0.313918 0.714428
vt 0.256788 0.753706
vt 0.689063 0.558104
vt 0.735661 0.558104
vt 0.712362 0.574481
vt 0.752502 0.620955
vt 0.712362 0.626147
vt 0.672222 0.620955
vt 0.211464 0.302789
vt 0.271306 0.260985
vt 0.270137 0.302652
vt 0.328807 0.302539
vt 0.815693 0.471150
vt 0.867359 0.471150
vt 0.862168 0.511290
vt 0.799316 0.494449
vt 0.199977 0.793520
vt 0.255295 0.793400
vt 0.310537 0.793304
vt 0.253638 0.832781
vt 0.005803 0.755221
vt 0.001175 0.715647
vt 0.005510 0.715603
vt 0.005230 0.675618
vt 0.712362 0.367818
vt 0.672222 0.321344
vt 0.712362 0.316153
vt 0.752503 0.321344
vt 0.735662 0.384196
vt 0.689063 0.384196
vt 0.214671 0.135250
vt 0.275078 0.092504
vt 0.274340 0.135434
vt 0.334098 0.135650
vt 0.273526 0.177605
vt 0.648707 0.534804
vt 0.660697 0.560637
vt 0.634864 0.605381
vt 0.602697 0.580815
vt 0.215895 0.048685
vt 0.276753 0.003844
vt 0.275895 0.048454
vt 0.336162 0.047915
vt 0.801850 0.522815
vt 0.846593 0.548648
vt 0.822027 0.580815
vt 0.776017 0.534804
vt 0.203916 0.633684
vt 0.260382 0.634089
vt 0.316848 0.634518
vt 0.764028 0.381662
vt 0.789861 0.336918
vt 0.197086 0.871207
vt 0.252007 0.871418
vt 0.306965 0.871661
vt 0.622875 0.522815
vt 0.578131 0.548648
vt 0.207818 0.468592
vt 0.265409 0.468669
vt 0.323004 0.468773
vt 0.764028 0.560637
vt 0.789861 0.605381
vt 0.213220 0.219290
vt 0.272475 0.219379
vt 0.331727 0.219496
vt 0.013984 0.471110
vt 0.036469 0.429327
vt 0.035988 0.512074
vt 0.013873 0.512438
vt 0.352103 0.302635
vt 0.327375 0.344219
vt 0.330252 0.260918
vt 0.353641 0.261027
vt 0.823549 0.266371
vt 0.847825 0.234599
vt 0.863220 0.197697
vt 0.517544 0.473558
vt 0.493045 0.514388
vt 0.497370 0.431354
vt 0.519765 0.431992
vt 0.372978 0.047696
vt 0.398495 0.003484
vt 0.395108 0.093572
vt 0.371232 0.092878
vt 0.363327 0.303029
vt 0.388087 0.261974
vt 0.385022 0.345327
vt 0.361828 0.344735
vt 0.165485 0.870808
vt 0.143564 0.908685
vt 0.144555 0.832600
vt 0.166154 0.832594
vt 0.176909 0.302559
vt 0.153032 0.344389
vt 0.154417 0.261073
vt 0.177662 0.260844
vt 0.567233 0.197628
vt 0.582611 0.234538
vt 0.606872 0.266321
vt 0.175338 0.385627
vt 0.151584 0.427265
vt 0.176132 0.344155
vt 0.175463 0.871051
vt 0.195889 0.909092
vt 0.174430 0.908871
vt 0.198510 0.832903
vt 0.013844 0.553614
vt 0.035748 0.594285
vt 0.013891 0.594565
vt 0.188160 0.302766
vt 0.212354 0.261077
vt 0.210557 0.344404
vt 0.187352 0.344367
vt 0.014787 0.794394
vt 0.035878 0.754888
vt 0.035949 0.833128
vt 0.014926 0.833233
vt 0.521921 0.390370
vt 0.501491 0.348079
vt 0.524041 0.348698
vt 0.336156 0.714684
vt 0.312264 0.753795
vt 0.315458 0.674803
vt 0.337883 0.675107
vt 0.342490 0.552268
vt 0.318251 0.593591
vt 0.321464 0.510289
vt 0.344282 0.510492
vt 0.360581 0.047368
vt 0.335054 0.092454
vt 0.337344 0.002704
vt 0.362146 0.001450
vt 0.346583 0.715146
vt 0.370544 0.676111
vt 0.367012 0.755123
vt 0.344877 0.754439
vt 0.353977 0.552731
vt 0.378512 0.511554
vt 0.375138 0.594863
vt 0.352249 0.594332
vt 0.014967 0.871634
vt 0.035941 0.909823
vt 0.014985 0.910102
vt 0.567252 0.118318
vt 0.562114 0.157972
vt 0.168853 0.713461
vt 0.145828 0.753464
vt 0.146734 0.713646
vt 0.147566 0.673679
vt 0.169853 0.673497
vt 0.014011 0.635221
vt 0.035822 0.675266
vt 0.014182 0.675552
vt 0.171888 0.551159
vt 0.148507 0.592686
vt 0.150078 0.509907
vt 0.172853 0.509620
vt 0.526154 0.306982
vt 0.505555 0.264606
vt 0.528287 0.265208
vt 0.360293 0.386362
vt 0.381779 0.428522
vt 0.358736 0.427910
vt 0.179659 0.713691
vt 0.202657 0.673946
vt 0.201208 0.753643
vt 0.178859 0.753540
vt 0.183317 0.551389
vt 0.206961 0.509962
vt 0.205243 0.592933
vt 0.182459 0.592736
vt 0.324296 0.951479
vt 0.300905 0.990230
vt 0.305078 0.910717
vt 0.326606 0.911281
vt 0.015057 0.949143
vt 0.036049 0.987398
vt 0.015158 0.988471
vt 0.606923 0.049644
vt 0.582646 0.081416
vt 0.332487 0.793426
vt 0.308762 0.832683
vt 0.334305 0.753978
vt 0.349064 0.385946
vt 0.324485 0.427335
vt 0.350590 0.344328
vt 0.335027 0.951995
vt 0.359289 0.912506
vt 0.355354 0.992592
vt 0.332905 0.992555
vt 0.530465 0.223362
vt 0.509735 0.180908
vt 0.532725 0.181404
vt 0.339328 0.634814
vt 0.340770 0.593851
vt 0.014383 0.715532
vt 0.035853 0.715242
vt 0.014592 0.755149
vt 0.163696 0.946998
vt 0.141809 0.985075
vt 0.164721 0.908673
vt 0.179733 0.134980
vt 0.155640 0.177332
vt 0.156446 0.092734
vt 0.180256 0.092237
vt 0.173630 0.947110
vt 0.194530 0.985467
vt 0.172946 0.985557
vt 0.091185 0.714426
vt 0.000573 0.635313
vt 0.004984 0.635277
vt 0.004796 0.594608
vt 0.000223 0.553661
vt 0.004693 0.553640
vt 0.004678 0.512448
vt 0.000249 0.471107
vt 0.004756 0.471103
vt 0.004911 0.429643
vt 0.000602 0.388094
vt 0.005128 0.388104
vt 0.005379 0.346499
vt 0.001100 0.304832
vt 0.005637 0.304843
vt 0.005869 0.263146
vt 0.001497 0.221420
vt 0.006040 0.221418
vt 0.006129 0.179686
vt 0.001518 0.138001
vt 0.006116 0.137977
vt 0.005966 0.095639
vt 0.000767 0.052533
vt 0.005643 0.052022
vt 0.005234 0.007765
vt 0.006213 0.988580
vt 0.002341 0.948809
vt 0.006351 0.949201
vt 0.006439 0.910127
vt 0.002348 0.871686
vt 0.006428 0.871664
vt 0.006312 0.833283
vt 0.001839 0.794499
vt 0.006087 0.794458
vt 0.343097 0.793897
vt 0.363268 0.834033
vt 0.341218 0.833302
vt 0.350305 0.635294
vt 0.348348 0.675578
vt 0.170461 0.633225
vt 0.171024 0.592495
vt 0.180539 0.048304
vt 0.156423 0.005260
vt 0.180702 0.003777
vt 0.186529 0.385842
vt 0.208720 0.427288
vt 0.185705 0.427211
vt 0.339215 0.872436
vt 0.337135 0.911825
vt 0.184896 0.468494
vt 0.184100 0.509837
vt 0.357169 0.469380
vt 0.355584 0.510934
vt 0.189701 0.219200
vt 0.214010 0.177367
vt 0.188946 0.261043
vt 0.366203 0.220058
vt 0.391015 0.178963
vt 0.364787 0.261413
vt 0.638644 0.290597
vt 0.675547 0.305992
vt 0.497819 0.798707
vt 0.474060 0.837407
vt 0.478643 0.758321
vt 0.500252 0.759039
vt 0.512857 0.556404
vt 0.488439 0.597015
vt 0.515244 0.515038
vt 0.868358 0.158043
vt 0.863238 0.118388
vt 0.014398 0.388134
vt 0.037114 0.346237
vt 0.014163 0.429664
vt 0.715200 0.311130
vt 0.754856 0.306010
vt 0.493222 0.877333
vt 0.469745 0.916105
vt 0.495471 0.838138
vt 0.507859 0.638409
vt 0.483428 0.678371
vt 0.510391 0.597559
vt 0.847861 0.081478
vt 0.823600 0.049694
vt 0.014933 0.304874
vt 0.037753 0.262873
vt 0.014663 0.346533
vt 0.791766 0.290633
vt 0.502755 0.719132
vt 0.505300 0.678938
vt 0.488639 0.957605
vt 0.465165 0.997233
vt 0.490977 0.916940
vt 0.791828 0.025418
vt 0.754925 0.010024
vt 0.015346 0.221420
vt 0.038133 0.179325
vt 0.015172 0.263167
vt 0.539995 0.052693
vt 0.514324 0.096038
vt 0.518707 0.008064
vt 0.542455 0.008281
vt 0.715271 0.004886
vt 0.675616 0.010005
vt 0.015391 0.137936
vt 0.038037 0.095226
vt 0.015428 0.179666
vt 0.535101 0.139293
vt 0.537542 0.096549
vt 0.638706 0.025383
vt 0.015147 0.051926
vt 0.037801 0.007863
vt 0.015281 0.095575
vt 0.660697 0.381662
vt 0.634864 0.336918
vt 0.178384 0.219015
vt 0.179075 0.177063
vt 0.173719 0.468279
vt 0.174533 0.426996
vt 0.357940 0.135860
vt 0.333065 0.177873
vt 0.359138 0.092450
vt 0.166888 0.793221
vt 0.167764 0.753305
vt 0.181435 0.633464
vt 0.180439 0.673730
vt 0.355238 0.219669
vt 0.356727 0.178099
vt 0.345941 0.468950
vt 0.347518 0.427487
vt 0.328700 0.871909
vt 0.330639 0.832809
vt 0.177800 0.793469
vt 0.176622 0.832850
vt 0.192277 0.048308
vt 0.216522 0.004334
vt 0.215276 0.092502
vt 0.191718 0.092351
vt 0.191095 0.135139
vt 0.190419 0.177234
vt 0.369429 0.136297
vt 0.367706 0.178506
vt 0.715236 0.158008
vt 0.712362 0.471150
vt 0.001510 0.755264
vt 0.000856 0.675660
vt 0.374695 0.001632
vt 0.321879 0.992092
vt 0.162542 0.985552
vt 0.000353 0.594637
vt 0.000187 0.512460
vt 0.000393 0.429639
vt 0.000847 0.346487
vt 0.001328 0.263139
vt 0.001573 0.179698
vt 0.001270 0.095791
vt 0.000137 0.008751
vt 0.002151 0.987790
vt 0.002438 0.910038
vt 0.002129 0.833318
vt 0.486256 0.998800
vt 0.015000 0.007633
vt 0.192804 0.003636
vt 0.009895 0.715564
vt 0.009317 0.471103
vt 0.357714 0.302833
vt 0.851956 0.236943
vt 0.522229 0.473808
vt 0.366928 0.047174
vt 0.170482 0.870926
vt 0.182538 0.302663
vt 0.578516 0.236943
vt 0.180936 0.385734
vt 0.009216 0.553623
vt 0.010386 0.794422
vt 0.526622 0.390606
vt 0.341444 0.714916
vt 0.348155 0.552493
vt 0.010602 0.871645
vt 0.557365 0.158008
vt 0.174256 0.713575
vt 0.009445 0.635244
vt 0.177527 0.551269
vt 0.530867 0.307216
vt 0.354678 0.386153
vt 0.329446 0.952035
vt 0.010532 0.949382
vt 0.578516 0.079072
vt 0.337791 0.793660
vt 0.535198 0.223604
vt 0.344816 0.635048
vt 0.168539 0.947346
vt 0.185489 0.135061
vt 0.009709 0.388116
vt 0.010230 0.304856
vt 0.010637 0.221418
vt 0.010734 0.137954
vt 0.010457 0.051742
vt 0.506641 0.799224
vt 0.513460 0.759836
vt 0.510943 0.799476
vt 0.508527 0.838876
vt 0.504235 0.838634
vt 0.502284 0.798969
vt 0.509130 0.759575
vt 0.501921 0.877812
vt 0.506233 0.878047
vt 0.504076 0.917528
vt 0.499682 0.917404
vt 0.497591 0.877575
vt 0.497500 0.958057
vt 0.502072 0.957859
vt 0.500143 0.998616
vt 0.495347 0.999239
vt 0.492999 0.958043
vt 0.549775 0.053206
vt 0.557091 0.009928
vt 0.554248 0.053916
vt 0.551517 0.097443
vt 0.547068 0.097078
vt 0.545094 0.052723
vt 0.552559 0.008762
vt 0.544517 0.139808
vt 0.549010 0.140052
vt 0.546654 0.182130
vt 0.542105 0.181895
vt 0.539917 0.139557
vt 0.539817 0.223837
vt 0.544379 0.224066
vt 0.542170 0.265897
vt 0.537617 0.265673
vt 0.535469 0.307441
vt 0.540015 0.307661
vt 0.537884 0.349375
vt 0.533343 0.349156
vt 0.531213 0.390833
vt 0.535748 0.391054
vt 0.533574 0.432692
vt 0.529044 0.432465
vt 0.526805 0.474047
vt 0.531327 0.474282
vt 0.528988 0.515790
vt 0.524480 0.515546
vt 0.522052 0.556929
vt 0.526539 0.557182
vt 0.523993 0.598360
vt 0.519533 0.598098
vt 0.517509 0.556671
vt 0.516935 0.638957
vt 0.521363 0.639224
vt 0.518700 0.679758
vt 0.514307 0.679490
vt 0.512453 0.638687
vt 0.511695 0.719679
vt 0.516055 0.719946
vt 0.507280 0.719409
vt 0.175948 0.633340
vt 0.186628 0.047966
vt 0.333890 0.872166
vt 0.179308 0.468386
vt 0.351551 0.469165
vt 0.184046 0.219109
vt 0.360799 0.219866
vt 0.636301 0.294728
vt 0.873106 0.158008
vt 0.715236 0.315878
vt 0.851956 0.079073
vt 0.794171 0.294728
vt 0.794171 0.021288
vt 0.715236 0.000137
vt 0.636301 0.021288
vt 0.363755 0.136073
vt 0.172269 0.793339
vt 0.009654 0.675581
vt 0.010147 0.755181
vt 0.009223 0.512439
vt 0.009483 0.429650
vt 0.359232 0.261223
vt 0.356208 0.344532
vt 0.867819 0.198892
vt 0.826934 0.269706
vt 0.524459 0.432234
vt 0.519917 0.515297
vt 0.365230 0.092567
vt 0.368736 0.000839
vt 0.171370 0.832715
vt 0.169555 0.908845
vt 0.183307 0.260944
vt 0.181745 0.344261
vt 0.603537 0.269706
vt 0.562653 0.198892
vt 0.180121 0.427103
vt 0.009292 0.594582
vt 0.010557 0.833254
vt 0.528747 0.348932
vt 0.343209 0.675342
vt 0.339609 0.754209
vt 0.349910 0.510711
vt 0.346414 0.594082
vt 0.010575 0.910165
vt 0.562653 0.117123
vt 0.175220 0.673613
vt 0.173218 0.753419
vt 0.178456 0.509727
vt 0.176648 0.592608
vt 0.533008 0.265445
vt 0.353125 0.427698
vt 0.331732 0.911622
vt 0.327096 0.992928
vt 0.010480 0.988948
vt 0.603537 0.046309
vt 0.335911 0.833052
vt 0.537485 0.181655
vt 0.167480 0.986137
vt 0.186134 0.092210
vt 0.184768 0.177150
vt 0.009967 0.346513
vt 0.010465 0.263154
vt 0.010732 0.179675
vt 0.010643 0.095547
vt 0.010224 0.007239
vt 0.499898 0.838389
vt 0.504745 0.759311
vt 0.495309 0.917226
vt 0.490676 0.999441
vt 0.542463 0.096763
vt 0.547767 0.008059
vt 0.515017 0.597833
vt 0.509859 0.679217
vt 0.187047 0.003026
vt 0.362334 0.178303
vt 0.674351 0.310591
vt 0.867819 0.117123
vt 0.756120 0.310591
vt 0.826934 0.046309
vt 0.756120 0.005425
vt 0.674351 0.005425
s 1
g Circle_Matériau
usemtl Matériau
f 292/1/1 371/2/2 1/3/3
f 371/2/2 269/4/4 1/3/3
f 269/4/4 374/5/5 1/3/3
f 374/5/5 292/1/1 1/3/3
f 298/6/6 386/7/7 2/8/8
f 386/7/7 284/9/9 2/8/8
f 284/9/9 388/10/10 2/8/8
f 388/10/10 298/6/6 2/8/8
f 303/11/11 390/12/12 3/13/13
f 390/12/12 261/14/14 3/13/13
f 261/14/14 372/15/15 3/13/13
f 372/15/15 303/11/11 3/13/13
f 311/16/16 380/17/17 4/18/18
f 380/17/17 277/19/19 4/18/18
f 277/19/19 382/20/20 4/18/18
f 382/20/20 311/16/16 4/18/18
f 5/21/21 561/22/22 376/23/23
f 376/23/23 377/24/24 5/21/21
f 5/21/21 563/25/25 272/26/26
f 321/27/27 388/10/10 6/28/28
f 388/10/10 286/29/29 6/28/28
f 286/29/29 390/12/12 6/28/28
f 390/12/12 321/27/27 6/28/28
f 338/30/30 370/31/31 7/32/32
f 370/31/31 266/33/33 7/32/32
f 266/33/33 371/34/2 7/32/32
f 371/34/2 338/30/30 7/32/32
f 330/35/34 382/20/20 8/36/35
f 382/20/20 279/37/36 8/36/35
f 279/37/36 384/38/37 8/36/35
f 384/38/37 330/35/34 8/36/35
f 334/39/38 375/40/39 9/41/40
f 375/40/39 273/42/41 9/41/40
f 273/42/41 378/43/42 9/41/40
f 378/43/42 334/39/38 9/41/40
f 10/44/43 577/45/44 369/46/45
f 369/46/45 367/47/46 10/44/43
f 10/44/43 555/48/47 262/49/48
f 342/50/49 384/38/37 11/51/50
f 384/38/37 281/52/51 11/51/50
f 281/52/51 386/7/7 11/51/50
f 386/7/7 342/50/49 11/51/50
f 346/53/52 378/43/42 12/54/53
f 378/43/42 275/55/54 12/54/53
f 275/55/54 380/17/17 12/54/53
f 380/17/17 346/53/52 12/54/53
f 250/56/55 360/57/56 13/58/57
f 360/57/56 333/59/58 13/58/57
f 333/59/58 359/60/59 13/58/57
f 359/60/59 250/56/55 13/58/57
f 246/61/60 357/62/61 14/63/62
f 357/62/61 329/64/63 14/63/62
f 329/64/63 356/65/64 14/63/62
f 356/65/64 246/61/60 14/63/62
f 256/66/65 353/67/66 15/68/67
f 353/67/66 324/69/68 15/68/67
f 324/69/68 365/70/69 15/68/67
f 365/70/69 256/66/65 15/68/67
f 251/71/70 361/72/71 16/73/72
f 361/72/71 315/74/73 16/73/72
f 315/74/73 360/57/56 16/73/72
f 360/57/56 251/71/70 16/73/72
f 248/75/74 358/76/75 17/77/76
f 358/76/75 309/78/77 17/77/76
f 309/78/77 357/62/61 17/77/76
f 357/62/61 248/75/74 17/77/76
f 18/79/78 555/48/47 367/47/46
f 367/47/46 368/80/79 18/79/78
f 18/79/78 557/81/80 264/82/81
f 257/83/82 349/84/83 19/85/84
f 349/84/83 301/86/85 19/85/84
f 301/86/85 353/67/66 19/85/84
f 353/67/66 257/83/82 19/85/84
f 252/87/86 363/88/87 20/89/88
f 363/88/87 290/90/89 20/89/88
f 290/90/89 361/72/71 20/89/88
f 361/72/71 252/87/86 20/89/88
f 249/91/90 359/60/59 21/92/91
f 359/60/59 345/93/92 21/92/91
f 345/93/92 358/76/75 21/92/91
f 358/76/75 249/91/90 21/92/91
f 22/94/93 538/95/94 222/96/95
f 22/94/93 542/97/96 352/98/97
f 352/98/97 355/99/98 22/94/93
f 245/100/99 356/65/64 23/101/100
f 356/65/64 341/102/101 23/101/100
f 341/102/101 354/103/102 23/101/100
f 354/103/102 245/100/99 23/101/100
f 254/104/103 365/70/69 24/105/104
f 365/70/69 337/106/105 24/105/104
f 337/106/105 363/107/87 24/105/104
f 363/107/87 254/104/103 24/105/104
f 25/108/106 565/109/107 379/110/108
f 379/110/108 381/111/109 25/108/106
f 25/108/106 567/112/110 276/113/111
f 26/114/112 571/115/113 385/116/114
f 385/116/114 387/117/115 26/114/112
f 26/114/112 573/118/116 282/119/117
f 325/120/118 372/15/15 27/121/119
f 372/15/15 263/122/120 27/121/119
f 263/122/120 370/31/31 27/121/119
f 370/31/31 325/120/118 27/121/119
f 28/123/121 563/25/25 377/24/24
f 377/24/24 379/110/108 28/123/121
f 28/123/121 565/109/107 274/124/122
f 29/125/123 569/126/124 383/127/125
f 383/127/125 385/116/114 29/125/123
f 29/125/123 571/115/113 280/128/126
f 30/129/127 557/81/80 368/80/79
f 368/80/79 373/130/128 30/129/127
f 30/129/127 559/131/129 267/132/130
f 31/133/131 576/134/132 389/135/133
f 389/135/133 369/46/45 31/133/131
f 31/133/131 577/45/44 259/136/134
f 32/137/135 559/131/129 373/130/128
f 373/130/128 376/23/23 32/137/135
f 32/137/135 561/22/22 270/138/136
f 33/139/137 567/112/110 381/111/109
f 381/111/109 383/127/125 33/139/137
f 33/139/137 569/126/124 278/140/138
f 307/141/16 391/142/139 34/143/140
f 391/142/139 313/144/77 34/143/140
f 313/144/77 392/145/141 34/143/140
f 392/145/141 307/141/16 34/143/140
f 35/146/142 573/118/116 387/117/115
f 387/117/115 389/135/133 35/146/142
f 35/146/142 576/134/132 285/147/143
f 316/148/144 374/5/5 36/149/145
f 374/5/5 271/150/146 36/149/145
f 271/150/146 375/40/39 36/149/145
f 375/40/39 316/148/144 36/149/145
f 37/151/147 522/152/148 199/153/149
f 37/151/147 524/154/150 364/155/151
f 364/155/151 366/156/152 37/151/147
f 336/157/30 400/158/153 38/159/154
f 400/158/153 339/160/105 38/159/154
f 339/160/105 398/161/155 38/159/154
f 398/161/155 336/157/30 38/159/154
f 355/99/98 413/162/156 39/163/157
f 39/163/157 536/164/158 225/165/159
f 39/163/157 538/95/94 355/99/98
f 340/166/49 397/167/160 40/168/161
f 397/167/160 343/169/101 40/168/161
f 343/169/101 395/170/162 40/168/161
f 395/170/162 340/166/49 40/168/161
f 244/171/163 354/103/102 41/172/164
f 354/103/102 297/173/165 41/172/164
f 297/173/165 348/174/166 41/172/164
f 348/174/166 244/171/163 41/172/164
f 319/175/27 396/176/167 42/177/168
f 396/176/167 322/178/169 42/177/168
f 322/178/169 402/179/170 42/177/168
f 402/179/170 319/175/27 42/177/168
f 430/180/171 436/181/172 43/182/173
f 43/182/173 530/183/174 217/184/175
f 43/182/173 532/185/176 430/180/171
f 344/186/52 393/187/177 44/188/178
f 393/187/177 347/189/92 44/188/178
f 347/189/92 391/142/139 44/188/178
f 391/142/139 344/186/52 44/188/178
f 45/190/179 524/154/150 200/191/180
f 45/190/179 526/192/181 362/193/182
f 362/193/182 364/155/151 45/190/179
f 300/194/11 402/179/170 46/195/183
f 402/179/170 305/196/85 46/195/183
f 305/196/85 401/197/184 46/195/183
f 401/197/184 300/194/11 46/195/183
f 228/198/185 227/199/186 47/200/187
f 227/199/186 216/201/188 47/200/187
f 48/202/189 539/203/190 197/204/191
f 48/202/189 520/205/192 351/206/193
f 351/206/193 350/207/194 48/202/189
f 314/208/144 399/209/195 49/210/196
f 399/209/195 318/211/73 49/210/196
f 318/211/73 394/212/197 49/210/196
f 394/212/197 314/208/144 49/210/196
f 422/213/198 430/180/171 50/214/199
f 50/214/199 532/185/176 236/215/200
f 50/214/199 534/216/201 422/213/198
f 288/217/1 398/218/155 51/219/202
f 398/218/155 294/220/89 51/219/202
f 294/220/89 399/209/195 51/219/202
f 399/209/195 288/217/1 51/219/202
f 52/221/203 526/192/181 220/222/204
f 52/221/203 528/223/205 441/224/206
f 441/224/206 362/193/182 52/221/203
f 296/225/6 395/170/162 53/226/207
f 395/170/162 299/227/165 53/226/207
f 299/227/165 396/176/167 53/226/207
f 396/176/167 296/225/6 53/226/207
f 54/228/208 520/205/192 239/229/209
f 54/228/208 522/152/148 366/156/152
f 366/156/152 351/206/193 54/228/208
f 323/230/118 401/197/184 55/231/210
f 401/197/184 326/232/68 55/231/210
f 326/232/68 400/158/153 55/231/210
f 400/158/153 323/230/118 55/231/210
f 413/162/156 422/213/198 56/233/211
f 56/233/211 534/216/201 229/234/212
f 56/233/211 536/164/158 413/162/156
f 327/235/34 392/145/141 57/236/213
f 392/145/141 331/237/63 57/236/213
f 331/237/63 397/167/160 57/236/213
f 397/167/160 327/235/34 57/236/213
f 436/181/172 441/224/206 58/238/214
f 58/238/214 528/223/205 232/239/215
f 58/238/214 530/183/174 436/181/172
f 332/240/38 394/212/197 59/241/216
f 394/212/197 335/242/58 59/241/216
f 335/242/58 393/187/177 59/241/216
f 393/187/177 332/240/38 59/241/216
f 60/243/217 547/244/218 246/61/60
f 60/243/217 546/245/219 409/246/220
f 61/247/221 581/248/222 347/189/92
f 61/247/221 584/249/223 408/250/224
f 417/251/225 259/136/134 62/252/226
f 259/136/134 416/253/227 62/252/226
f 63/254/228 570/255/229 279/37/36
f 63/254/228 568/256/230 242/257/231
f 64/258/232 598/259/233 292/1/1
f 64/258/232 623/260/234 472/261/235
f 65/262/236 583/263/237 346/53/52
f 65/262/236 582/264/238 418/265/239
f 66/266/240 602/267/241 324/69/68
f 66/266/240 614/268/242 420/269/243
f 67/270/221 579/271/222 345/93/92
f 67/270/221 586/272/223 414/273/224
f 255/274/244 278/140/138 68/275/245
f 278/140/138 411/276/246 68/275/245
f 69/277/247 610/278/248 309/78/77
f 69/277/247 579/271/222 449/279/249
f 70/280/250 601/281/251 454/282/252
f 70/280/250 613/283/253 323/230/118
f 71/284/254 546/245/219 245/100/99
f 71/284/254 545/285/255 260/286/256
f 72/287/236 585/288/237 344/186/52
f 72/287/236 580/289/238 412/290/239
f 73/291/257 543/292/258 257/83/82
f 73/291/257 554/293/259 253/294/260
f 74/295/261 568/256/230 277/19/19
f 74/295/261 566/296/262 265/297/263
f 75/298/264 617/299/265 322/178/169
f 75/298/264 620/300/266 410/301/267
f 76/302/268 589/303/269 343/169/101
f 76/302/268 592/304/270 407/305/271
f 77/306/272 624/307/273 294/220/89
f 77/306/272 597/308/274 471/309/275
f 78/310/276 619/311/277 321/27/27
f 78/310/276 618/312/278 243/313/279
f 79/314/280 591/315/281 342/50/49
f 79/314/280 590/316/282 247/317/283
f 80/318/284 554/293/259 256/66/65
f 80/318/284 553/319/285 287/320/286
f 293/321/287 276/113/111 81/322/288
f 276/113/111 255/274/244 81/322/288
f 82/323/264 615/324/265 320/325/169
f 82/323/264 622/326/266 268/327/267
f 83/328/289 545/285/255 244/171/163
f 83/328/289 544/329/290 310/330/291
f 84/331/268 587/332/269 341/102/101
f 84/331/268 594/333/270 406/334/271
f 85/335/292 566/296/262 275/55/54
f 85/335/292 564/336/293 302/337/294
f 86/338/295 582/264/238 311/16/16
f 86/338/295 607/339/296 474/340/297
f 87/341/276 621/342/277 319/175/27
f 87/341/276 616/343/278 258/344/279
f 88/345/280 593/346/281 340/166/49
f 88/345/280 588/347/282 295/348/283
f 89/349/298 597/350/274 339/160/105
f 89/349/298 600/351/241 405/352/299
f 90/353/300 553/319/285 254/104/103
f 90/353/300 552/354/301 289/355/302
f 291/356/303 274/124/122 91/357/304
f 274/124/122 293/321/287 91/357/304
f 92/358/305 612/359/242 305/196/85
f 92/358/305 617/299/265 476/360/306
f 93/361/247 608/362/248 313/144/77
f 93/361/247 581/248/222 469/363/249
f 94/364/307 599/365/251 338/30/30
f 94/364/307 598/366/233 283/367/308
f 95/368/309 564/336/293 273/42/41
f 95/368/309 562/369/310 304/370/311
f 96/371/312 620/300/266 299/227/165
f 96/371/312 589/303/269 473/372/313
f 97/373/314 544/329/290 241/374/315
f 97/373/314 543/292/258 312/375/316
f 98/376/298 595/377/274 337/106/105
f 98/376/298 602/267/241 404/378/299
f 99/379/317 606/380/318 315/74/73
f 99/379/317 626/381/273 308/382/319
f 100/383/307 601/281/251 336/157/30
f 100/383/307 596/384/233 317/385/308
f 241/374/315 348/174/166 101/386/320
f 348/174/166 320/325/169 101/386/320
f 320/325/169 349/84/83 101/386/320
f 349/84/83 241/374/315 101/386/320
f 216/201/188 222/387/95 102/388/321
f 222/387/95 212/389/322 102/388/321
f 212/389/322 225/390/159 103/391/323
f 225/390/159 211/392/324 103/391/323
f 211/392/324 229/393/212 104/394/325
f 229/393/212 226/395/326 104/394/325
f 226/395/326 236/396/200 105/397/327
f 236/396/200 230/398/328 105/397/327
f 230/398/328 217/399/175 106/400/329
f 217/399/175 218/401/330 106/400/329
f 218/401/330 232/402/215 107/403/331
f 232/402/215 203/404/332 107/403/331
f 203/404/332 220/405/204 108/406/333
f 220/405/204 202/407/334 108/406/333
f 202/407/334 200/408/180 109/409/335
f 200/408/180 237/410/336 109/409/335
f 237/411/336 199/412/149 110/413/337
f 199/412/149 233/414/338 110/413/337
f 233/414/338 239/415/209 111/416/339
f 239/415/209 240/417/340 111/416/339
f 240/417/340 197/418/191 112/419/341
f 197/418/191 228/198/185 112/419/341
f 125/420/342 618/312/278 303/11/11
f 125/420/342 611/421/253 470/422/343
f 126/423/344 619/311/277 475/424/345
f 126/423/344 590/316/282 298/6/6
f 127/425/312 622/326/266 297/173/165
f 127/425/312 587/332/269 452/426/313
f 128/427/272 626/381/273 290/90/89
f 128/427/272 595/428/274 451/429/275
f 129/430/295 580/289/238 307/141/16
f 129/430/295 609/431/296 453/432/297
f 130/433/250 611/421/253 325/120/118
f 130/433/250 599/365/251 478/434/252
f 131/435/346 609/431/296 327/235/34
f 131/435/346 593/346/281 455/436/347
f 132/437/346 607/339/296 330/35/34
f 132/437/346 591/315/281 479/438/347
f 133/439/348 605/440/349 332/240/38
f 133/439/348 585/288/237 456/441/350
f 134/442/348 603/443/349 334/39/38
f 134/442/348 583/263/237 480/444/350
f 411/276/246 280/128/126 135/445/351
f 280/128/126 421/446/352 135/445/351
f 136/447/353 578/448/354 261/14/14
f 136/447/353 575/449/355 423/450/356
f 137/451/357 572/452/358 281/52/51
f 137/451/357 570/255/229 415/453/359
f 416/253/227 262/49/48 138/454/360
f 262/49/48 426/455/361 138/454/360
f 139/456/362 548/457/363 248/75/74
f 139/456/362 547/244/218 419/458/364
f 421/446/352 282/119/117 140/459/365
f 282/119/117 429/460/366 140/459/365
f 141/461/367 556/462/368 263/122/120
f 141/461/367 578/448/354 424/463/369
f 142/464/370 574/465/371 284/9/9
f 142/464/370 572/452/358 425/466/372
f 426/455/361 264/82/81 143/467/373
f 264/82/81 433/468/374 143/467/373
f 144/469/375 549/470/376 249/91/90
f 144/469/375 548/457/363 427/471/377
f 429/460/366 285/147/143 145/472/378
f 285/147/143 417/251/225 145/472/378
f 146/473/379 575/449/355 286/29/29
f 146/473/379 574/465/371 432/474/380
f 147/475/381 558/476/382 266/33/33
f 147/475/381 556/462/368 431/477/383
f 433/468/374 267/132/130 148/478/384
f 267/132/130 438/479/385 148/478/384
f 149/480/386 550/481/387 250/56/55
f 149/480/386 549/470/376 434/482/388
f 150/483/389 560/484/390 269/4/4
f 150/483/389 558/485/382 437/486/391
f 438/479/385 270/138/136 151/487/392
f 270/138/136 443/488/393 151/487/392
f 152/489/394 551/490/395 251/71/70
f 152/489/394 550/481/387 439/491/396
f 153/492/397 562/369/310 271/150/146
f 153/492/397 560/484/390 442/493/398
f 443/488/393 272/26/26 154/494/399
f 272/26/26 291/356/303 154/494/399
f 155/495/400 552/496/301 252/87/86
f 155/495/400 551/490/395 444/497/401
f 156/498/402 542/97/96 227/499/186
f 156/498/402 539/203/190 350/207/194
f 350/207/194 352/98/97 156/498/402
f 157/500/403 586/272/223 333/59/58
f 157/500/403 606/380/318 306/501/404
f 158/502/405 594/333/270 329/64/63
f 158/502/405 610/278/248 435/503/406
f 159/504/317 604/505/318 318/211/73
f 159/504/317 624/307/273 328/506/407
f 160/507/305 614/268/242 301/86/85
f 160/507/305 615/324/265 445/508/306
f 161/509/344 621/342/277 446/510/345
f 161/509/344 588/347/282 296/225/6
f 162/511/403 584/249/223 335/242/58
f 162/511/403 604/505/318 403/512/404
f 163/513/405 592/304/270 331/237/63
f 163/513/405 608/362/248 440/514/406
f 164/515/240 600/351/241 326/232/68
f 164/515/240 612/359/242 428/516/408
f 165/517/342 613/283/253 448/518/343
f 165/517/342 616/343/278 300/194/11
f 166/519/232 596/520/233 288/217/1
f 166/519/232 625/521/234 450/522/235
f 167/523/409 625/521/234 314/208/144
f 167/523/409 605/440/349 447/524/410
f 168/525/409 603/443/349 477/526/410
f 168/525/409 623/260/234 316/148/144
f 292/1/1 598/259/233 371/2/2
f 371/2/2 558/485/382 269/4/4
f 269/4/4 560/484/390 374/5/5
f 374/5/5 623/260/234 292/1/1
f 298/6/6 590/316/282 386/7/7
f 386/7/7 572/452/358 284/9/9
f 284/9/9 574/465/371 388/10/10
f 388/10/10 619/311/277 298/6/6
f 303/11/11 618/312/278 390/12/12
f 390/12/12 575/449/355 261/14/14
f 261/14/14 578/448/354 372/15/15
f 372/15/15 611/421/253 303/11/11
f 311/16/16 582/264/238 380/17/17
f 380/17/17 566/296/262 277/19/19
f 277/19/19 568/256/230 382/20/20
f 382/20/20 607/339/296 311/16/16
f 5/21/21 272/26/26 561/22/22
f 376/23/23 518/527/411 377/24/24
f 5/21/21 377/24/24 563/25/25
f 321/27/27 619/311/277 388/10/10
f 388/10/10 574/465/371 286/29/29
f 286/29/29 575/449/355 390/12/12
f 390/12/12 618/312/278 321/27/27
f 338/30/30 599/365/251 370/31/31
f 370/31/31 556/462/368 266/33/33
f 266/33/33 558/476/382 371/34/2
f 371/34/2 598/366/233 338/30/30
f 330/35/34 607/339/296 382/20/20
f 382/20/20 568/256/230 279/37/36
f 279/37/36 570/255/229 384/38/37
f 384/38/37 591/315/281 330/35/34
f 334/39/38 603/443/349 375/40/39
f 375/40/39 562/369/310 273/42/41
f 273/42/41 564/336/293 378/43/42
f 378/43/42 583/263/237 334/39/38
f 10/44/43 262/49/48 577/45/44
f 369/46/45 518/527/411 367/47/46
f 10/44/43 367/47/46 555/48/47
f 342/50/49 591/315/281 384/38/37
f 384/38/37 570/255/229 281/52/51
f 281/52/51 572/452/358 386/7/7
f 386/7/7 590/316/282 342/50/49
f 346/53/52 583/263/237 378/43/42
f 378/43/42 564/336/293 275/55/54
f 275/55/54 566/296/262 380/17/17
f 380/17/17 582/264/238 346/53/52
f 250/56/55 550/481/387 360/57/56
f 360/57/56 606/380/318 333/59/58
f 333/59/58 586/272/223 359/60/59
f 359/60/59 549/470/376 250/56/55
f 246/61/60 547/244/218 357/62/61
f 357/62/61 610/278/248 329/64/63
f 329/64/63 594/333/270 356/65/64
f 356/65/64 546/245/219 246/61/60
f 256/66/65 554/293/259 353/67/66
f 353/67/66 614/268/242 324/69/68
f 324/69/68 602/267/241 365/70/69
f 365/70/69 553/319/285 256/66/65
f 251/71/70 551/490/395 361/72/71
f 361/72/71 626/381/273 315/74/73
f 315/74/73 606/380/318 360/57/56
f 360/57/56 550/481/387 251/71/70
f 248/75/74 548/457/363 358/76/75
f 358/76/75 579/271/222 309/78/77
f 309/78/77 610/278/248 357/62/61
f 357/62/61 547/244/218 248/75/74
f 18/79/78 264/82/81 555/48/47
f 367/47/46 518/527/411 368/80/79
f 18/79/78 368/80/79 557/81/80
f 257/83/82 543/292/258 349/84/83
f 349/84/83 615/324/265 301/86/85
f 301/86/85 614/268/242 353/67/66
f 353/67/66 554/293/259 257/83/82
f 252/87/86 552/496/301 363/88/87
f 363/88/87 595/428/274 290/90/89
f 290/90/89 626/381/273 361/72/71
f 361/72/71 551/490/395 252/87/86
f 249/91/90 549/470/376 359/60/59
f 359/60/59 586/272/223 345/93/92
f 345/93/92 579/271/222 358/76/75
f 358/76/75 548/457/363 249/91/90
f 22/94/93 355/99/98 538/95/94
f 22/94/93 222/96/95 542/97/96
f 352/98/97 505/528/412 355/99/98
f 245/100/99 546/245/219 356/65/64
f 356/65/64 594/333/270 341/102/101
f 341/102/101 587/332/269 354/103/102
f 354/103/102 545/285/255 245/100/99
f 254/104/103 553/319/285 365/70/69
f 365/70/69 602/267/241 337/106/105
f 337/106/105 595/377/274 363/107/87
f 363/107/87 552/354/301 254/104/103
f 25/108/106 276/113/111 565/109/107
f 379/110/108 518/527/411 381/111/109
f 25/108/106 381/111/109 567/112/110
f 26/114/112 282/119/117 571/115/113
f 385/116/114 518/527/411 387/117/115
f 26/114/112 387/117/115 573/118/116
f 325/120/118 611/421/253 372/15/15
f 372/15/15 578/448/354 263/122/120
f 263/122/120 556/462/368 370/31/31
f 370/31/31 599/365/251 325/120/118
f 28/123/121 274/124/122 563/25/25
f 377/24/24 518/527/411 379/110/108
f 28/123/121 379/110/108 565/109/107
f 29/125/123 280/128/126 569/126/124
f 383/127/125 518/527/411 385/116/114
f 29/125/123 385/116/114 571/115/113
f 30/129/127 267/132/130 557/81/80
f 368/80/79 518/527/411 373/130/128
f 30/129/127 373/130/128 559/131/129
f 31/133/131 259/136/134 576/134/132
f 389/135/133 518/527/411 369/46/45
f 31/133/131 369/46/45 577/45/44
f 32/137/135 270/138/136 559/131/129
f 373/130/128 518/527/411 376/23/23
f 32/137/135 376/23/23 561/22/22
f 33/139/137 278/140/138 567/112/110
f 381/111/109 518/527/411 383/127/125
f 33/139/137 383/127/125 569/126/124
f 307/141/16 580/289/238 391/142/139
f 391/142/139 581/248/222 313/144/77
f 313/144/77 608/362/248 392/145/141
f 392/145/141 609/431/296 307/141/16
f 35/146/142 285/147/143 573/118/116
f 387/117/115 518/527/411 389/135/133
f 35/146/142 389/135/133 576/134/132
f 316/148/144 623/260/234 374/5/5
f 374/5/5 560/484/390 271/150/146
f 271/150/146 562/369/310 375/40/39
f 375/40/39 603/443/349 316/148/144
f 37/151/147 366/156/152 522/152/148
f 37/151/147 199/153/149 524/154/150
f 364/155/151 505/528/412 366/156/152
f 336/157/30 601/281/251 400/158/153
f 400/158/153 600/351/241 339/160/105
f 339/160/105 597/350/274 398/161/155
f 398/161/155 596/384/233 336/157/30
f 355/99/98 505/528/412 413/162/156
f 39/163/157 413/162/156 536/164/158
f 39/163/157 225/165/159 538/95/94
f 340/166/49 593/346/281 397/167/160
f 397/167/160 592/304/270 343/169/101
f 343/169/101 589/303/269 395/170/162
f 395/170/162 588/347/282 340/166/49
f 244/171/163 545/285/255 354/103/102
f 354/103/102 587/332/269 297/173/165
f 297/173/165 622/326/266 348/174/166
f 348/174/166 544/329/290 244/171/163
f 319/175/27 621/342/277 396/176/167
f 396/176/167 620/300/266 322/178/169
f 322/178/169 617/299/265 402/179/170
f 402/179/170 616/343/278 319/175/27
f 430/180/171 505/528/412 436/181/172
f 43/182/173 436/181/172 530/183/174
f 43/182/173 217/184/175 532/185/176
f 344/186/52 585/288/237 393/187/177
f 393/187/177 584/249/223 347/189/92
f 347/189/92 581/248/222 391/142/139
f 391/142/139 580/289/238 344/186/52
f 45/190/179 364/155/151 524/154/150
f 45/190/179 200/191/180 526/192/181
f 362/193/182 505/528/412 364/155/151
f 300/194/11 616/343/278 402/179/170
f 402/179/170 617/299/265 305/196/85
f 305/196/85 612/359/242 401/197/184
f 401/197/184 613/283/253 300/194/11
f 228/198/185 539/529/190 227/199/186
f 227/199/186 542/530/96 216/201/188
f 48/202/189 350/207/194 539/203/190
f 48/202/189 197/204/191 520/205/192
f 351/206/193 505/528/412 350/207/194
f 314/208/144 625/521/234 399/209/195
f 399/209/195 624/307/273 318/211/73
f 318/211/73 604/505/318 394/212/197
f 394/212/197 605/440/349 314/208/144
f 422/213/198 505/528/412 430/180/171
f 50/214/199 430/180/171 532/185/176
f 50/214/199 236/215/200 534/216/201
f 288/217/1 596/520/233 398/218/155
f 398/218/155 597/308/274 294/220/89
f 294/220/89 624/307/273 399/209/195
f 399/209/195 625/521/234 288/217/1
f 52/221/203 362/193/182 526/192/181
f 52/221/203 220/222/204 528/223/205
f 441/224/206 505/528/412 362/193/182
f 296/225/6 588/347/282 395/170/162
f 395/170/162 589/303/269 299/227/165
f 299/227/165 620/300/266 396/176/167
f 396/176/167 621/342/277 296/225/6
f 54/228/208 351/206/193 520/205/192
f 54/228/208 239/229/209 522/152/148
f 366/156/152 505/528/412 351/206/193
f 323/230/118 613/283/253 401/197/184
f 401/197/184 612/359/242 326/232/68
f 326/232/68 600/351/241 400/158/153
f 400/158/153 601/281/251 323/230/118
f 413/162/156 505/528/412 422/213/198
f 56/233/211 422/213/198 534/216/201
f 56/233/211 229/234/212 536/164/158
f 327/235/34 609/431/296 392/145/141
f 392/145/141 608/362/248 331/237/63
f 331/237/63 592/304/270 397/167/160
f 397/167/160 593/346/281 327/235/34
f 436/181/172 505/528/412 441/224/206
f 58/238/214 441/224/206 528/223/205
f 58/238/214 232/239/215 530/183/174
f 332/240/38 605/440/349 394/212/197
f 394/212/197 604/505/318 335/242/58
f 335/242/58 584/249/223 393/187/177
f 393/187/177 585/288/237 332/240/38
f 60/243/217 419/458/364 547/244/218
f 60/243/217 246/61/60 546/245/219
f 61/247/221 469/363/249 581/248/222
f 61/247/221 347/189/92 584/249/223
f 417/251/225 576/134/132 259/136/134
f 259/136/134 577/45/44 416/253/227
f 63/254/228 415/453/359 570/255/229
f 63/254/228 279/37/36 568/256/230
f 64/258/232 283/531/308 598/259/233
f 64/258/232 292/1/1 623/260/234
f 65/262/236 480/444/350 583/263/237
f 65/262/236 346/53/52 582/264/238
f 66/266/240 404/378/299 602/267/241
f 66/266/240 324/69/68 614/268/242
f 67/270/221 449/279/249 579/271/222
f 67/270/221 345/93/92 586/272/223
f 255/274/244 567/112/110 278/140/138
f 278/140/138 569/126/124 411/276/246
f 69/277/247 435/503/406 610/278/248
f 69/277/247 309/78/77 579/271/222
f 70/280/250 323/230/118 601/281/251
f 70/280/250 448/518/343 613/283/253
f 71/284/254 409/246/220 546/245/219
f 71/284/254 245/100/99 545/285/255
f 72/287/236 456/441/350 585/288/237
f 72/287/236 344/186/52 580/289/238
f 73/291/257 312/375/316 543/292/258
f 73/291/257 257/83/82 554/293/259
f 74/295/261 242/257/231 568/256/230
f 74/295/261 277/19/19 566/296/262
f 75/298/264 476/360/306 617/299/265
f 75/298/264 322/178/169 620/300/266
f 76/302/268 473/372/313 589/303/269
f 76/302/268 343/169/101 592/304/270
f 77/306/272 328/506/407 624/307/273
f 77/306/272 294/220/89 597/308/274
f 78/310/276 475/424/345 619/311/277
f 78/310/276 321/27/27 618/312/278
f 79/314/280 479/438/347 591/315/281
f 79/314/280 342/50/49 590/316/282
f 80/318/284 253/294/260 554/293/259
f 80/318/284 256/66/65 553/319/285
f 293/321/287 565/109/107 276/113/111
f 276/113/111 567/112/110 255/274/244
f 82/323/264 445/508/306 615/324/265
f 82/323/264 320/325/169 622/326/266
f 83/328/289 260/286/256 545/285/255
f 83/328/289 244/171/163 544/329/290
f 84/331/268 452/426/313 587/332/269
f 84/331/268 341/102/101 594/333/270
f 85/335/292 265/297/263 566/296/262
f 85/335/292 275/55/54 564/336/293
f 86/338/295 418/265/239 582/264/238
f 86/338/295 311/16/16 607/339/296
f 87/341/276 446/510/345 621/342/277
f 87/341/276 319/175/27 616/343/278
f 88/345/280 455/436/347 593/346/281
f 88/345/280 340/166/49 588/347/282
f 89/349/298 471/532/275 597/350/274
f 89/349/298 339/160/105 600/351/241
f 90/353/300 287/320/286 553/319/285
f 90/353/300 254/104/103 552/354/301
f 291/356/303 563/25/25 274/124/122
f 274/124/122 565/109/107 293/321/287
f 92/358/305 428/516/408 612/359/242
f 92/358/305 305/196/85 617/299/265
f 93/361/247 440/514/406 608/362/248
f 93/361/247 313/144/77 581/248/222
f 94/364/307 478/434/252 599/365/251
f 94/364/307 338/30/30 598/366/233
f 95/368/309 302/337/294 564/336/293
f 95/368/309 273/42/41 562/369/310
f 96/371/312 410/301/267 620/300/266
f 96/371/312 299/227/165 589/303/269
f 97/373/314 310/330/291 544/329/290
f 97/373/314 241/374/315 543/292/258
f 98/376/298 451/533/275 595/377/274
f 98/376/298 337/106/105 602/267/241
f 99/379/317 306/501/404 606/380/318
f 99/379/317 315/74/73 626/381/273
f 100/383/307 454/282/252 601/281/251
f 100/383/307 336/157/30 596/384/233
f 241/374/315 544/329/290 348/174/166
f 348/174/166 622/326/266 320/325/169
f 320/325/169 615/324/265 349/84/83
f 349/84/83 543/292/258 241/374/315
f 216/201/188 542/530/96 222/387/95
f 222/387/95 538/534/94 212/389/322
f 212/389/322 538/534/94 225/390/159
f 225/390/159 536/535/158 211/392/324
f 211/392/324 536/535/158 229/393/212
f 229/393/212 534/536/201 226/395/326
f 226/395/326 534/536/201 236/396/200
f 236/396/200 532/537/176 230/398/328
f 230/398/328 532/537/176 217/399/175
f 217/399/175 530/538/174 218/401/330
f 218/401/330 530/538/174 232/402/215
f 232/402/215 528/539/205 203/404/332
f 203/404/332 528/539/205 220/405/204
f 220/405/204 526/540/181 202/407/334
f 202/407/334 526/540/181 200/408/180
f 200/408/180 524/541/150 237/410/336
f 237/411/336 524/542/150 199/412/149
f 199/412/149 522/543/148 233/414/338
f 233/414/338 522/543/148 239/415/209
f 239/415/209 520/544/192 240/417/340
f 240/417/340 520/544/192 197/418/191
f 197/418/191 539/529/190 228/198/185
f 125/420/342 243/313/279 618/312/278
f 125/420/342 303/11/11 611/421/253
f 126/423/344 298/6/6 619/311/277
f 126/423/344 247/317/283 590/316/282
f 127/425/312 268/327/267 622/326/266
f 127/425/312 297/173/165 587/332/269
f 128/427/272 308/382/319 626/381/273
f 128/427/272 290/90/89 595/428/274
f 129/430/295 412/290/239 580/289/238
f 129/430/295 307/141/16 609/431/296
f 130/433/250 470/422/343 611/421/253
f 130/433/250 325/120/118 599/365/251
f 131/435/346 453/432/297 609/431/296
f 131/435/346 327/235/34 593/346/281
f 132/437/346 474/340/297 607/339/296
f 132/437/346 330/35/34 591/315/281
f 133/439/348 447/524/410 605/440/349
f 133/439/348 332/240/38 585/288/237
f 134/442/348 477/526/410 603/443/349
f 134/442/348 334/39/38 583/263/237
f 411/276/246 569/126/124 280/128/126
f 280/128/126 571/115/113 421/446/352
f 136/447/353 424/463/369 578/448/354
f 136/447/353 261/14/14 575/449/355
f 137/451/357 425/466/372 572/452/358
f 137/451/357 281/52/51 570/255/229
f 416/253/227 577/45/44 262/49/48
f 262/49/48 555/48/47 426/455/361
f 139/456/362 427/471/377 548/457/363
f 139/456/362 248/75/74 547/244/218
f 421/446/352 571/115/113 282/119/117
f 282/119/117 573/118/116 429/460/366
f 141/461/367 431/477/383 556/462/368
f 141/461/367 263/122/120 578/448/354
f 142/464/370 432/474/380 574/465/371
f 142/464/370 284/9/9 572/452/358
f 426/455/361 555/48/47 264/82/81
f 264/82/81 557/81/80 433/468/374
f 144/469/375 434/482/388 549/470/376
f 144/469/375 249/91/90 548/457/363
f 429/460/366 573/118/116 285/147/143
f 285/147/143 576/134/132 417/251/225
f 146/473/379 423/450/356 575/449/355
f 146/473/379 286/29/29 574/465/371
f 147/475/381 437/545/391 558/476/382
f 147/475/381 266/33/33 556/462/368
f 433/468/374 557/81/80 267/132/130
f 267/132/130 559/131/129 438/479/385
f 149/480/386 439/491/396 550/481/387
f 149/480/386 250/56/55 549/470/376
f 150/483/389 442/493/398 560/484/390
f 150/483/389 269/4/4 558/485/382
f 438/479/385 559/131/129 270/138/136
f 270/138/136 561/22/22 443/488/393
f 152/489/394 444/497/401 551/490/395
f 152/489/394 251/71/70 550/481/387
f 153/492/397 304/370/311 562/369/310
f 153/492/397 271/150/146 560/484/390
f 443/488/393 561/22/22 272/26/26
f 272/26/26 563/25/25 291/356/303
f 155/495/400 289/546/302 552/496/301
f 155/495/400 252/87/86 551/490/395
f 156/498/402 352/98/97 542/97/96
f 156/498/402 227/499/186 539/203/190
f 350/207/194 505/528/412 352/98/97
f 157/500/403 414/273/224 586/272/223
f 157/500/403 333/59/58 606/380/318
f 158/502/405 406/334/271 594/333/270
f 158/502/405 329/64/63 610/278/248
f 159/504/317 403/512/404 604/505/318
f 159/504/317 318/211/73 624/307/273
f 160/507/305 420/269/243 614/268/242
f 160/507/305 301/86/85 615/324/265
f 161/509/344 296/225/6 621/342/277
f 161/509/344 295/348/283 588/347/282
f 162/511/403 408/250/224 584/249/223
f 162/511/403 335/242/58 604/505/318
f 163/513/405 407/305/271 592/304/270
f 163/513/405 331/237/63 608/362/248
f 164/515/240 405/352/299 600/351/241
f 164/515/240 326/232/68 612/359/242
f 165/517/342 300/194/11 613/283/253
f 165/517/342 258/344/279 616/343/278
f 166/519/232 317/547/308 596/520/233
f 166/519/232 288/217/1 625/521/234
f 167/523/409 450/522/235 625/521/234
f 167/523/409 314/208/144 605/440/349
f 168/525/409 316/148/144 603/443/349
f 168/525/409 472/261/235 623/260/234
g Circle_Matériau.001
usemtl Matériau.001
f 216/201/188 214/548/413 47/200/187
f 214/548/413 228/198/185 47/200/187
f 409/246/220 207/549/414 60/243/217
f 207/549/414 419/458/364 60/243/217
f 408/250/224 481/550/178 61/247/221
f 481/550/178 469/363/249 61/247/221
f 416/253/227 170/551/415 62/252/226
f 170/551/415 417/251/225 62/252/226
f 242/257/231 192/552/416 63/254/228
f 192/552/416 415/453/359 63/254/228
f 472/261/235 492/553/202 64/258/232
f 492/553/202 283/531/308 64/258/232
f 418/265/239 481/550/178 65/262/236
f 481/550/178 480/444/350 65/262/236
f 420/269/243 462/554/210 66/266/240
f 462/554/210 404/378/299 66/266/240
f 414/273/224 457/555/178 67/270/221
f 457/555/178 449/279/249 67/270/221
f 411/276/246 172/556/417 68/275/245
f 172/556/417 255/274/244 68/275/245
f 449/279/249 465/557/140 69/277/247
f 465/557/140 435/503/406 69/277/247
f 454/282/252 462/554/210 70/280/250
f 462/554/210 448/518/343 70/280/250
f 260/286/256 209/558/418 71/284/254
f 209/558/418 409/246/220 71/284/254
f 412/290/239 457/555/178 72/287/236
f 457/555/178 456/441/350 72/287/236
f 253/294/260 223/559/419 73/291/257
f 223/559/419 312/375/316 73/291/257
f 265/297/263 185/560/420 74/295/261
f 185/560/420 242/257/231 74/295/261
f 410/301/267 487/561/168 75/298/264
f 487/561/168 476/360/306 75/298/264
f 407/305/271 482/562/161 76/302/268
f 482/562/161 473/372/313 76/302/268
f 471/309/275 492/553/202 77/306/272
f 492/553/202 328/506/407 77/306/272
f 243/313/279 487/561/168 78/310/276
f 487/561/168 475/424/345 78/310/276
f 247/317/283 482/562/161 79/314/280
f 482/562/161 479/438/347 79/314/280
f 287/320/286 224/563/421 80/318/284
f 224/563/421 253/294/260 80/318/284
f 255/274/244 177/564/422 81/322/288
f 177/564/422 293/321/287 81/322/288
f 268/327/267 463/565/168 82/323/264
f 463/565/168 445/508/306 82/323/264
f 310/330/291 221/566/423 83/328/289
f 221/566/423 260/286/256 83/328/289
f 406/334/271 458/567/161 84/331/268
f 458/567/161 452/426/313 84/331/268
f 302/337/294 186/568/424 85/335/292
f 186/568/424 265/297/263 85/335/292
f 474/340/297 489/569/140 86/338/295
f 489/569/140 418/265/239 86/338/295
f 258/344/279 463/565/168 87/341/276
f 463/565/168 446/510/345 87/341/276
f 295/348/283 458/567/161 88/345/280
f 458/567/161 455/436/347 88/345/280
f 405/352/299 483/570/154 89/349/298
f 483/570/154 471/532/275 89/349/298
f 289/355/302 234/571/425 90/353/300
f 234/571/425 287/320/286 90/353/300
f 293/321/287 178/572/426 91/357/304
f 178/572/426 291/356/303 91/357/304
f 476/360/306 490/573/183 92/358/305
f 490/573/183 428/516/408 92/358/305
f 469/363/249 489/569/140 93/361/247
f 489/569/140 440/514/406 93/361/247
f 283/367/308 483/570/154 94/364/307
f 483/570/154 478/434/252 94/364/307
f 304/370/311 187/574/427 95/368/309
f 187/574/427 302/337/294 95/368/309
f 473/372/313 491/575/207 96/371/312
f 491/575/207 410/301/267 96/371/312
f 312/375/316 214/548/413 97/373/314
f 214/548/413 310/330/291 97/373/314
f 404/378/299 459/576/154 98/376/298
f 459/576/154 451/533/275 98/376/298
f 308/382/319 464/577/196 99/379/317
f 464/577/196 306/501/404 99/379/317
f 317/385/308 459/576/154 100/383/307
f 459/576/154 454/282/252 100/383/307
f 212/389/322 221/566/423 102/388/321
f 221/566/423 216/201/188 102/388/321
f 211/392/324 209/558/418 103/391/323
f 209/558/418 212/389/322 103/391/323
f 226/395/326 207/549/414 104/394/325
f 207/549/414 211/392/324 104/394/325
f 230/398/328 205/578/428 105/397/327
f 205/578/428 226/395/326 105/397/327
f 218/401/330 235/579/429 106/400/329
f 235/579/429 230/398/328 106/400/329
f 203/404/332 231/580/430 107/403/331
f 231/580/430 218/401/330 107/403/331
f 202/407/334 238/581/431 108/406/333
f 238/581/431 203/404/332 108/406/333
f 237/410/336 219/582/432 109/409/335
f 219/582/432 202/407/334 109/409/335
f 233/414/338 234/571/425 110/413/337
f 234/571/425 237/411/336 110/413/337
f 240/417/340 224/563/421 111/416/339
f 224/563/421 233/414/338 111/416/339
f 228/198/185 223/559/419 112/419/341
f 223/559/419 240/417/340 112/419/341
f 113/583/433 516/584/434 170/585/415
f 113/583/433 515/586/435 196/587/436
f 196/587/436 180/588/437 113/583/433
f 180/588/437 210/589/438 113/583/433
f 114/590/439 515/586/435 179/591/440
f 114/590/439 513/592/441 213/593/442
f 213/593/442 191/594/443 114/590/439
f 191/594/443 196/587/436 114/590/439
f 115/595/444 513/592/441 169/596/445
f 115/595/444 511/597/446 194/598/447
f 194/598/447 190/599/448 115/595/444
f 190/599/448 213/593/442 115/595/444
f 116/600/449 511/601/446 176/602/450
f 116/600/449 509/603/451 201/604/452
f 201/604/452 189/605/453 116/600/449
f 189/605/453 194/606/447 116/600/449
f 117/607/454 509/603/451 175/608/455
f 117/607/454 507/609/456 208/610/457
f 208/610/457 188/611/458 117/607/454
f 188/611/458 201/604/452 117/607/454
f 118/612/459 507/609/456 171/613/460
f 118/612/459 504/614/461 193/615/462
f 193/615/462 187/574/427 118/612/459
f 187/574/427 208/610/457 118/612/459
f 119/616/463 504/614/461 178/617/426
f 119/616/463 502/618/464 198/619/465
f 198/619/465 186/568/424 119/616/463
f 186/568/424 193/615/462 119/616/463
f 120/620/466 502/618/464 177/621/422
f 120/620/466 500/622/467 206/623/468
f 206/623/468 185/560/420 120/620/466
f 185/560/420 198/619/465 120/620/466
f 121/624/469 500/622/467 172/625/417
f 121/624/469 498/626/470 215/627/471
f 215/627/471 192/552/416 121/624/469
f 192/552/416 206/623/468 121/624/469
f 122/628/472 498/626/470 184/629/473
f 122/628/472 496/630/474 195/631/475
f 195/631/475 183/632/476 122/628/472
f 183/632/476 215/627/471 122/628/472
f 123/633/477 496/630/474 174/634/478
f 123/633/477 494/635/479 204/636/480
f 204/636/480 182/637/481 123/633/477
f 182/637/481 195/631/475 123/633/477
f 124/638/482 494/635/479 181/639/483
f 124/638/482 516/584/434 210/589/438
f 210/589/438 173/640/484 124/638/482
f 173/640/484 204/636/480 124/638/482
f 470/422/343 490/573/183 125/420/342
f 490/573/183 243/313/279 125/420/342
f 475/424/345 491/575/207 126/423/344
f 491/575/207 247/317/283 126/423/344
f 452/426/313 467/641/207 127/425/312
f 467/641/207 268/327/267 127/425/312
f 451/429/275 468/642/202 128/427/272
f 468/642/202 308/382/319 128/427/272
f 453/432/297 465/557/140 129/430/295
f 465/557/140 412/290/239 129/430/295
f 478/434/252 486/643/210 130/433/250
f 486/643/210 470/422/343 130/433/250
f 455/436/347 461/644/213 131/435/346
f 461/644/213 453/432/297 131/435/346
f 479/438/347 485/645/213 132/437/346
f 485/645/213 474/340/297 132/437/346
f 456/441/350 460/646/216 133/439/348
f 460/646/216 447/524/410 133/439/348
f 480/444/350 484/647/216 134/442/348
f 484/647/216 477/526/410 134/442/348
f 421/446/352 184/648/473 135/445/351
f 184/648/473 411/276/246 135/445/351
f 423/450/356 180/588/437 136/447/353
f 180/588/437 424/463/369 136/447/353
f 415/453/359 183/632/476 137/451/357
f 183/632/476 425/466/372 137/451/357
f 426/455/361 179/649/440 138/454/360
f 179/649/440 416/253/227 138/454/360
f 419/458/364 205/578/428 139/456/362
f 205/578/428 427/471/377 139/456/362
f 429/460/366 174/650/478 140/459/365
f 174/650/478 421/446/352 140/459/365
f 424/463/369 191/594/443 141/461/367
f 191/594/443 431/477/383 141/461/367
f 425/466/372 182/637/481 142/464/370
f 182/637/481 432/474/380 142/464/370
f 433/468/374 169/651/445 143/467/373
f 169/651/445 426/455/361 143/467/373
f 427/471/377 235/579/429 144/469/375
f 235/579/429 434/482/388 144/469/375
f 417/251/225 181/652/483 145/472/378
f 181/652/483 429/460/366 145/472/378
f 432/474/380 173/640/484 146/473/379
f 173/640/484 423/450/356 146/473/379
f 431/477/383 190/599/448 147/475/381
f 190/599/448 437/545/391 147/475/381
f 438/479/385 176/653/450 148/478/384
f 176/653/450 433/468/374 148/478/384
f 434/482/388 231/580/430 149/480/386
f 231/580/430 439/491/396 149/480/386
f 437/486/391 189/605/453 150/483/389
f 189/605/453 442/493/398 150/483/389
f 443/488/393 175/654/455 151/487/392
f 175/654/455 438/479/385 151/487/392
f 439/491/396 238/581/431 152/489/394
f 238/581/431 444/497/401 152/489/394
f 442/493/398 188/611/458 153/492/397
f 188/611/458 304/370/311 153/492/397
f 291/356/303 171/655/460 154/494/399
f 171/655/460 443/488/393 154/494/399
f 444/497/401 219/582/432 155/495/400
f 219/582/432 289/546/302 155/495/400
f 306/501/404 460/646/216 157/500/403
f 460/646/216 414/273/224 157/500/403
f 435/503/406 461/644/213 158/502/405
f 461/644/213 406/334/271 158/502/405
f 328/506/407 488/656/196 159/504/317
f 488/656/196 403/512/404 159/504/317
f 445/508/306 466/657/183 160/507/305
f 466/657/183 420/269/243 160/507/305
f 446/510/345 467/641/207 161/509/344
f 467/641/207 295/348/283 161/509/344
f 403/512/404 484/647/216 162/511/403
f 484/647/216 408/250/224 162/511/403
f 440/514/406 485/645/213 163/513/405
f 485/645/213 407/305/271 163/513/405
f 428/516/408 486/643/210 164/515/240
f 486/643/210 405/352/299 164/515/240
f 448/518/343 466/657/183 165/517/342
f 466/657/183 258/344/279 165/517/342
f 450/522/235 468/642/202 166/519/232
f 468/642/202 317/547/308 166/519/232
f 447/524/410 464/577/196 167/523/409
f 464/577/196 450/522/235 167/523/409
f 477/526/410 488/656/196 168/525/409
f 488/656/196 472/261/235 168/525/409
f 216/201/188 541/658/485 214/548/413
f 214/548/413 540/659/486 228/198/185
f 409/246/220 535/660/487 207/549/414
f 207/549/414 533/661/488 419/458/364
f 408/250/224 650/662/177 481/550/178
f 481/550/178 639/663/139 469/363/249
f 416/253/227 515/664/435 170/551/415
f 170/551/415 516/665/434 417/251/225
f 242/257/231 499/666/489 192/552/416
f 192/552/416 497/667/490 415/453/359
f 472/261/235 642/668/195 492/553/202
f 492/553/202 641/669/155 283/531/308
f 418/265/239 639/663/139 481/550/178
f 481/550/178 650/662/177 480/444/350
f 420/269/243 630/670/184 462/554/210
f 462/554/210 636/671/153 404/378/299
f 414/273/224 638/672/177 457/555/178
f 457/555/178 631/673/139 449/279/249
f 411/276/246 498/674/470 172/556/417
f 172/556/417 500/675/467 255/274/244
f 449/279/249 631/673/139 465/557/140
f 465/557/140 635/676/141 435/503/406
f 454/282/252 636/671/153 462/554/210
f 462/554/210 630/670/184 448/518/343
f 260/286/256 537/677/491 209/558/418
f 209/558/418 535/660/487 409/246/220
f 412/290/239 631/673/139 457/555/178
f 457/555/178 638/672/177 456/441/350
f 253/294/260 519/678/492 223/559/419
f 223/559/419 540/659/486 312/375/316
f 265/297/263 501/679/493 185/560/420
f 185/560/420 499/666/489 242/257/231
f 410/301/267 645/680/167 487/561/168
f 487/561/168 646/681/170 476/360/306
f 407/305/271 649/682/160 482/562/161
f 482/562/161 643/683/162 473/372/313
f 471/309/275 641/669/155 492/553/202
f 492/553/202 642/668/195 328/506/407
f 243/313/279 646/681/170 487/561/168
f 487/561/168 645/680/167 475/424/345
f 247/317/283 643/683/162 482/562/161
f 482/562/161 649/682/160 479/438/347
f 287/320/286 521/684/494 224/563/421
f 224/563/421 519/678/492 253/294/260
f 255/274/244 500/675/467 177/564/422
f 177/564/422 502/685/464 293/321/287
f 268/327/267 628/686/167 463/565/168
f 463/565/168 627/687/170 445/508/306
f 310/330/291 541/658/485 221/566/423
f 221/566/423 537/677/491 260/286/256
f 406/334/271 637/688/160 458/567/161
f 458/567/161 634/689/162 452/426/313
f 302/337/294 503/690/495 186/568/424
f 186/568/424 501/679/493 265/297/263
f 474/340/297 644/691/141 489/569/140
f 489/569/140 639/663/139 418/265/239
f 258/344/279 627/687/170 463/565/168
f 463/565/168 628/686/167 446/510/345
f 295/348/283 634/689/162 458/567/161
f 458/567/161 637/688/160 455/436/347
f 405/352/299 648/692/153 483/570/154
f 483/570/154 641/693/155 471/532/275
f 289/355/302 523/694/496 234/571/425
f 234/571/425 521/684/494 287/320/286
f 293/321/287 502/685/464 178/572/426
f 178/572/426 504/695/461 291/356/303
f 476/360/306 646/681/170 490/573/183
f 490/573/183 640/696/184 428/516/408
f 469/363/249 639/663/139 489/569/140
f 489/569/140 644/691/141 440/514/406
f 283/367/308 641/693/155 483/570/154
f 483/570/154 648/692/153 478/434/252
f 304/370/311 506/697/497 187/574/427
f 187/574/427 503/690/495 302/337/294
f 473/372/313 643/683/162 491/575/207
f 491/575/207 645/680/167 410/301/267
f 312/375/316 540/659/486 214/548/413
f 214/548/413 541/658/485 310/330/291
f 404/378/299 636/671/153 459/576/154
f 459/576/154 633/698/155 451/533/275
f 308/382/319 632/699/195 464/577/196
f 464/577/196 629/700/197 306/501/404
f 317/385/308 633/698/155 459/576/154
f 459/576/154 636/671/153 454/282/252
f 212/389/322 537/677/491 221/566/423
f 221/566/423 541/658/485 216/201/188
f 211/392/324 535/660/487 209/558/418
f 209/558/418 537/677/491 212/389/322
f 226/395/326 533/661/488 207/549/414
f 207/549/414 535/660/487 211/392/324
f 230/398/328 531/701/498 205/578/428
f 205/578/428 533/661/488 226/395/326
f 218/401/330 529/702/499 235/579/429
f 235/579/429 531/701/498 230/398/328
f 203/404/332 527/703/500 231/580/430
f 231/580/430 529/702/499 218/401/330
f 202/407/334 525/704/501 238/581/431
f 238/581/431 527/703/500 203/404/332
f 237/410/336 523/705/496 219/582/432
f 219/582/432 525/704/501 202/407/334
f 233/414/338 521/684/494 234/571/425
f 234/571/425 523/694/496 237/411/336
f 240/417/340 519/678/492 224/563/421
f 224/563/421 521/684/494 233/414/338
f 228/198/185 540/659/486 223/559/419
f 223/559/419 519/678/492 240/417/340
f 113/583/433 210/589/438 516/584/434
f 113/583/433 170/585/415 515/586/435
f 196/587/436 514/706/502 180/588/437
f 180/588/437 517/707/503 210/589/438
f 114/590/439 196/587/436 515/586/435
f 114/590/439 179/591/440 513/592/441
f 213/593/442 512/708/504 191/594/443
f 191/594/443 514/706/502 196/587/436
f 115/595/444 213/593/442 513/592/441
f 115/595/444 169/596/445 511/597/446
f 194/598/447 510/709/505 190/599/448
f 190/599/448 512/708/504 213/593/442
f 116/600/449 194/606/447 511/601/446
f 116/600/449 176/602/450 509/603/451
f 201/604/452 508/710/506 189/605/453
f 189/605/453 510/711/505 194/606/447
f 117/607/454 201/604/452 509/603/451
f 117/607/454 175/608/455 507/609/456
f 208/610/457 506/697/497 188/611/458
f 188/611/458 508/710/506 201/604/452
f 118/612/459 208/610/457 507/609/456
f 118/612/459 171/613/460 504/614/461
f 193/615/462 503/690/495 187/574/427
f 187/574/427 506/697/497 208/610/457
f 119/616/463 193/615/462 504/614/461
f 119/616/463 178/617/426 502/618/464
f 198/619/465 501/679/493 186/568/424
f 186/568/424 503/690/495 193/615/462
f 120/620/466 198/619/465 502/618/464
f 120/620/466 177/621/422 500/622/467
f 206/623/468 499/666/489 185/560/420
f 185/560/420 501/679/493 198/619/465
f 121/624/469 206/623/468 500/622/467
f 121/624/469 172/625/417 498/626/470
f 215/627/471 497/667/490 192/552/416
f 192/552/416 499/666/489 206/623/468
f 122/628/472 215/627/471 498/626/470
f 122/628/472 184/629/473 496/630/474
f 195/631/475 495/712/507 183/632/476
f 183/632/476 497/667/490 215/627/471
f 123/633/477 195/631/475 496/630/474
f 123/633/477 174/634/478 494/635/479
f 204/636/480 493/713/508 182/637/481
f 182/637/481 495/712/507 195/631/475
f 124/638/482 204/636/480 494/635/479
f 124/638/482 181/639/483 516/584/434
f 210/589/438 517/707/503 173/640/484
f 173/640/484 493/713/508 204/636/480
f 470/422/343 640/696/184 490/573/183
f 490/573/183 646/681/170 243/313/279
f 475/424/345 645/680/167 491/575/207
f 491/575/207 643/683/162 247/317/283
f 452/426/313 634/689/162 467/641/207
f 467/641/207 628/686/167 268/327/267
f 451/429/275 633/714/155 468/642/202
f 468/642/202 632/699/195 308/382/319
f 453/432/297 635/676/141 465/557/140
f 465/557/140 631/673/139 412/290/239
f 478/434/252 648/692/153 486/643/210
f 486/643/210 640/696/184 470/422/343
f 455/436/347 637/688/160 461/644/213
f 461/644/213 635/676/141 453/432/297
f 479/438/347 649/682/160 485/645/213
f 485/645/213 644/691/141 474/340/297
f 456/441/350 638/672/177 460/646/216
f 460/646/216 629/700/197 447/524/410
f 480/444/350 650/662/177 484/647/216
f 484/647/216 647/715/197 477/526/410
f 421/446/352 496/716/474 184/648/473
f 184/648/473 498/674/470 411/276/246
f 423/450/356 517/707/503 180/588/437
f 180/588/437 514/706/502 424/463/369
f 415/453/359 497/667/490 183/632/476
f 183/632/476 495/712/507 425/466/372
f 426/455/361 513/717/441 179/649/440
f 179/649/440 515/664/435 416/253/227
f 419/458/364 533/661/488 205/578/428
f 205/578/428 531/701/498 427/471/377
f 429/460/366 494/718/479 174/650/478
f 174/650/478 496/716/474 421/446/352
f 424/463/369 514/706/502 191/594/443
f 191/594/443 512/708/504 431/477/383
f 425/466/372 495/712/507 182/637/481
f 182/637/481 493/713/508 432/474/380
f 433/468/374 511/719/446 169/651/445
f 169/651/445 513/717/441 426/455/361
f 427/471/377 531/701/498 235/579/429
f 235/579/429 529/702/499 434/482/388
f 417/251/225 516/665/434 181/652/483
f 181/652/483 494/718/479 429/460/366
f 432/474/380 493/713/508 173/640/484
f 173/640/484 517/707/503 423/450/356
f 431/477/383 512/708/504 190/599/448
f 190/599/448 510/709/505 437/545/391
f 438/479/385 509/720/451 176/653/450
f 176/653/450 511/719/446 433/468/374
f 434/482/388 529/702/499 231/580/430
f 231/580/430 527/703/500 439/491/396
f 437/486/391 510/711/505 189/605/453
f 189/605/453 508/710/506 442/493/398
f 443/488/393 507/721/456 175/654/455
f 175/654/455 509/720/451 438/479/385
f 439/491/396 527/703/500 238/581/431
f 238/581/431 525/704/501 444/497/401
f 442/493/398 508/710/506 188/611/458
f 188/611/458 506/697/497 304/370/311
f 291/356/303 504/695/461 171/655/460
f 171/655/460 507/721/456 443/488/393
f 444/497/401 525/704/501 219/582/432
f 219/582/432 523/705/496 289/546/302
f 306/501/404 629/700/197 460/646/216
f 460/646/216 638/672/177 414/273/224
f 435/503/406 635/676/141 461/644/213
f 461/644/213 637/688/160 406/334/271
f 328/506/407 642/668/195 488/656/196
f 488/656/196 647/715/197 403/512/404
f 445/508/306 627/687/170 466/657/183
f 466/657/183 630/670/184 420/269/243
f 446/510/345 628/686/167 467/641/207
f 467/641/207 634/689/162 295/348/283
f 403/512/404 647/715/197 484/647/216
f 484/647/216 650/662/177 408/250/224
f 440/514/406 644/691/141 485/645/213
f 485/645/213 649/682/160 407/305/271
f 428/516/408 640/696/184 486/643/210
f 486/643/210 648/692/153 405/352/299
f 448/518/343 630/670/184 466/657/183
f 466/657/183 627/687/170 258/344/279
f 450/522/235 632/699/195 468/642/202
f 468/642/202 633/714/155 317/547/308
f 447/524/410 629/700/197 464/577/196
f 464/577/196 632/699/195 450/522/235
f 477/526/410 647/715/197 488/656/196
f 488/656/196 642/668/195 472/261/235
